<?xml version="1.0" encoding="UTF-8" standalone="no"?>
<!DOCTYPE svg PUBLIC "-//W3C//DTD SVG 1.1//EN"
 "http://www.w3.org/Graphics/SVG/1.1/DTD/svg11.dtd">
<!-- Generated by graphviz version 2.40.1 (20161225.0304)
 -->
<!-- Title: finite_state_machine Pages: 1 -->
<svg width="576pt" height="197pt"
 viewBox="0.00 0.00 576.00 196.86" xmlns="http://www.w3.org/2000/svg" xmlns:xlink="http://www.w3.org/1999/xlink">
<g id="graph0" class="graph" transform="scale(.9838 .9838) rotate(0) translate(4 196.0946)">
<title>finite_state_machine</title>
<polygon fill="#ffffff" stroke="transparent" points="-4,4 -4,-196.0946 581.4729,-196.0946 581.4729,4 -4,4"/>
<!-- LR_0 -->
<g id="node1" class="node">
<title>LR_0</title>
<ellipse fill="none" stroke="#000000" cx="34.5473" cy="-94.5473" rx="30.5892" ry="30.5892"/>
<ellipse fill="none" stroke="#000000" cx="34.5473" cy="-94.5473" rx="34.5946" ry="34.5946"/>
<text text-anchor="middle" x="34.5473" y="-90.8473" font-family="Times,serif" font-size="14.00" fill="#000000">LR_0</text>
</g>
<!-- LR_1 -->
<g id="node3" class="node">
<title>LR_1</title>
<ellipse fill="none" stroke="#000000" cx="294.7364" cy="-161.5473" rx="30.5947" ry="30.5947"/>
<text text-anchor="middle" x="294.7364" y="-157.8473" font-family="Times,serif" font-size="14.00" fill="#000000">LR_1</text>
</g>
<!-- LR_0&#45;&gt;LR_1 -->
<g id="edge8" class="edge">
<title>LR_0&#45;&gt;LR_1</title>
<path fill="none" stroke="#000000" d="M65.9839,-108.882C85.7565,-117.405 112.0019,-127.8299 136.0946,-134.5473 175.5553,-145.5496 221.8578,-152.8061 254.2184,-156.9983"/>
<polygon fill="#000000" stroke="#000000" points="253.8508,-160.4796 264.2089,-158.2526 254.7228,-153.5341 253.8508,-160.4796"/>
<text text-anchor="middle" x="166.6419" y="-151.3473" font-family="Times,serif" font-size="14.00" fill="#000000">7/7</text>
</g>
<!-- LR_3 -->
<g id="node5" class="node">
<title>LR_3</title>
<ellipse fill="none" stroke="#000000" cx="166.6419" cy="-94.5473" rx="30.5947" ry="30.5947"/>
<text text-anchor="middle" x="166.6419" y="-90.8473" font-family="Times,serif" font-size="14.00" fill="#000000">LR_3</text>
</g>
<!-- LR_0&#45;&gt;LR_3 -->
<g id="edge9" class="edge">
<title>LR_0&#45;&gt;LR_3</title>
<path fill="none" stroke="#000000" d="M69.2536,-94.5473C86.5064,-94.5473 107.4734,-94.5473 125.5274,-94.5473"/>
<polygon fill="#000000" stroke="#000000" points="125.7706,-98.0474 135.7706,-94.5473 125.7705,-91.0474 125.7706,-98.0474"/>
<text text-anchor="middle" x="102.5946" y="-98.3473" font-family="Times,serif" font-size="14.00" fill="#000000">10/10</text>
</g>
<!-- LR_2 -->
<g id="node6" class="node">
<title>LR_2</title>
<ellipse fill="none" stroke="#000000" cx="294.7364" cy="-30.5473" rx="30.5947" ry="30.5947"/>
<text text-anchor="middle" x="294.7364" y="-26.8473" font-family="Times,serif" font-size="14.00" fill="#000000">LR_2</text>
</g>
<!-- LR_0&#45;&gt;LR_2 -->
<g id="edge10" class="edge">
<title>LR_0&#45;&gt;LR_2</title>
<path fill="none" stroke="#000000" d="M63.2759,-74.5293C82.8433,-62.0489 109.8631,-46.9918 136.0946,-39.5473 175.1276,-28.4697 221.6755,-27.1503 254.2186,-28.0328"/>
<polygon fill="#000000" stroke="#000000" points="254.1479,-31.5324 264.2651,-28.3871 254.3947,-24.5367 254.1479,-31.5324"/>
<text text-anchor="middle" x="166.6419" y="-43.3473" font-family="Times,serif" font-size="14.00" fill="#000000">8/8</text>
</g>
<!-- LR_5 -->
<g id="node2" class="node">
<title>LR_5</title>
<ellipse fill="none" stroke="#000000" cx="542.9256" cy="-129.5473" rx="30.5892" ry="30.5892"/>
<ellipse fill="none" stroke="#000000" cx="542.9256" cy="-129.5473" rx="34.5946" ry="34.5946"/>
<text text-anchor="middle" x="542.9256" y="-125.8473" font-family="Times,serif" font-size="14.00" fill="#000000">LR_5</text>
</g>
<!-- LR_1&#45;&gt;LR_5 -->
<g id="edge2" class="edge">
<title>LR_1&#45;&gt;LR_5</title>
<path fill="none" stroke="#000000" d="M325.1693,-157.6235C368.5527,-152.0299 448.4493,-141.7285 498.4649,-135.2798"/>
<polygon fill="#000000" stroke="#000000" points="499.19,-138.7154 508.6603,-133.9653 498.2948,-131.7728 499.19,-138.7154"/>
<text text-anchor="middle" x="416.831" y="-152.3473" font-family="Times,serif" font-size="14.00" fill="#000000">17/21</text>
</g>
<!-- LR_4 -->
<g id="node4" class="node">
<title>LR_4</title>
<ellipse fill="none" stroke="#000000" cx="416.831" cy="-95.5473" rx="30.5947" ry="30.5947"/>
<text text-anchor="middle" x="416.831" y="-91.8473" font-family="Times,serif" font-size="14.00" fill="#000000">LR_4</text>
</g>
<!-- LR_1&#45;&gt;LR_4 -->
<g id="edge1" class="edge">
<title>LR_1&#45;&gt;LR_4</title>
<path fill="none" stroke="#000000" d="M321.3201,-145.9195C328.419,-141.8274 336.1114,-137.4658 343.2837,-133.5473 355.2263,-127.0226 368.3962,-120.1259 380.2516,-114.025"/>
<polygon fill="#000000" stroke="#000000" points="382.1236,-116.9986 389.429,-109.3251 378.9329,-110.7681 382.1236,-116.9986"/>
<text text-anchor="middle" x="355.7837" y="-137.3473" font-family="Times,serif" font-size="14.00" fill="#000000">0/1</text>
</g>
<!-- LR_4&#45;&gt;LR_5 -->
<g id="edge6" class="edge">
<title>LR_4&#45;&gt;LR_5</title>
<path fill="none" stroke="#000000" d="M446.3946,-103.5188C462.2156,-107.7847 481.9995,-113.1192 499.5308,-117.8464"/>
<polygon fill="#000000" stroke="#000000" points="498.9793,-121.3226 509.5457,-120.5468 500.8017,-114.564 498.9793,-121.3226"/>
<text text-anchor="middle" x="477.8783" y="-118.3473" font-family="Times,serif" font-size="14.00" fill="#000000">8/14</text>
</g>
<!-- LR_3&#45;&gt;LR_1 -->
<g id="edge5" class="edge">
<title>LR_3&#45;&gt;LR_1</title>
<path fill="none" stroke="#000000" d="M194.5675,-107.1147C209.9667,-114.237 229.3275,-123.5087 246.1892,-132.5473 250.6711,-134.9498 255.3267,-137.5673 259.9024,-140.2144"/>
<polygon fill="#000000" stroke="#000000" points="258.1422,-143.2396 268.5362,-145.2928 261.6912,-137.206 258.1422,-143.2396"/>
<text text-anchor="middle" x="230.6892" y="-136.3473" font-family="Times,serif" font-size="14.00" fill="#000000">10/11</text>
</g>
<!-- LR_3&#45;&gt;LR_4 -->
<g id="edge3" class="edge">
<title>LR_3&#45;&gt;LR_4</title>
<path fill="none" stroke="#000000" d="M197.32,-94.6699C242.1493,-94.8491 325.6548,-95.1829 375.7461,-95.3831"/>
<polygon fill="#000000" stroke="#000000" points="375.8881,-98.8836 385.902,-95.4237 375.9161,-91.8836 375.8881,-98.8836"/>
<text text-anchor="middle" x="294.7364" y="-98.3473" font-family="Times,serif" font-size="14.00" fill="#000000">0/5</text>
</g>
<!-- LR_3&#45;&gt;LR_2 -->
<g id="edge4" class="edge">
<title>LR_3&#45;&gt;LR_2</title>
<path fill="none" stroke="#000000" d="M193.4889,-79.8852C200.517,-76.1251 208.1092,-72.1318 215.1892,-68.5473 228.924,-61.5934 244.1462,-54.2376 257.5666,-47.8693"/>
<polygon fill="#000000" stroke="#000000" points="259.4257,-50.862 266.9732,-43.4265 256.4363,-44.5324 259.4257,-50.862"/>
<text text-anchor="middle" x="230.6892" y="-72.3473" font-family="Times,serif" font-size="14.00" fill="#000000">0/2</text>
</g>
<!-- LR_2&#45;&gt;LR_4 -->
<g id="edge7" class="edge">
<title>LR_2&#45;&gt;LR_4</title>
<path fill="none" stroke="#000000" d="M322.0843,-44.4252C335.9743,-51.5376 353.0845,-60.3967 368.2837,-68.5473 372.5227,-70.8205 376.9527,-73.2327 381.3383,-75.6436"/>
<polygon fill="#000000" stroke="#000000" points="379.7578,-78.7691 390.2027,-80.5453 383.1452,-72.6432 379.7578,-78.7691"/>
<text text-anchor="middle" x="355.7837" y="-72.3473" font-family="Times,serif" font-size="14.00" fill="#000000">8/12</text>
</g>
</g>
</svg>
