<?xml version="1.0" encoding="UTF-8" standalone="no"?>
<!DOCTYPE svg PUBLIC "-//W3C//DTD SVG 1.1//EN"
 "http://www.w3.org/Graphics/SVG/1.1/DTD/svg11.dtd">
<!-- Generated by graphviz version 2.40.1 (20161225.0304)
 -->
<!-- Title: finite_state_machine Pages: 1 -->
<svg width="573pt" height="208pt"
 viewBox="0.00 0.00 573.47 208.09" xmlns="http://www.w3.org/2000/svg" xmlns:xlink="http://www.w3.org/1999/xlink">
<g id="graph0" class="graph" transform="scale(1 1) rotate(0) translate(4 204.0946)">
<title>finite_state_machine</title>
<polygon fill="#ffffff" stroke="transparent" points="-4,4 -4,-204.0946 569.4729,-204.0946 569.4729,4 -4,4"/>
<!-- LR_0 -->
<g id="node1" class="node">
<title>LR_0</title>
<ellipse fill="none" stroke="#000000" cx="34.5473" cy="-97.5473" rx="30.5892" ry="30.5892"/>
<ellipse fill="none" stroke="#000000" cx="34.5473" cy="-97.5473" rx="34.5946" ry="34.5946"/>
<text text-anchor="middle" x="34.5473" y="-93.8473" font-family="Times,serif" font-size="14.00" fill="#000000">LR_0</text>
</g>
<!-- LR_1 -->
<g id="node2" class="node">
<title>LR_1</title>
<ellipse fill="none" stroke="#000000" cx="286.7364" cy="-165.5473" rx="30.5892" ry="30.5892"/>
<ellipse fill="none" stroke="#000000" cx="286.7364" cy="-165.5473" rx="34.5946" ry="34.5946"/>
<text text-anchor="middle" x="286.7364" y="-161.8473" font-family="Times,serif" font-size="14.00" fill="#000000">LR_1</text>
</g>
<!-- LR_0&#45;&gt;LR_1 -->
<g id="edge10" class="edge">
<title>LR_0&#45;&gt;LR_1</title>
<path fill="none" stroke="#000000" d="M65.7618,-112.6657C84.1289,-121.0385 108.0157,-131.0385 130.0946,-137.5473 167.1147,-148.4607 210.3801,-155.8016 242.049,-160.2189"/>
<polygon fill="#000000" stroke="#000000" points="241.9401,-163.7359 252.3185,-161.6059 242.877,-156.7989 241.9401,-163.7359"/>
<text text-anchor="middle" x="160.6419" y="-154.3473" font-family="Times,serif" font-size="14.00" fill="#000000">7/7</text>
</g>
<!-- LR_2 -->
<g id="node3" class="node">
<title>LR_2</title>
<ellipse fill="none" stroke="#000000" cx="286.7364" cy="-30.5473" rx="30.5947" ry="30.5947"/>
<text text-anchor="middle" x="286.7364" y="-26.8473" font-family="Times,serif" font-size="14.00" fill="#000000">LR_2</text>
</g>
<!-- LR_0&#45;&gt;LR_2 -->
<g id="edge8" class="edge">
<title>LR_0&#45;&gt;LR_2</title>
<path fill="none" stroke="#000000" d="M62.6776,-76.8574C80.9314,-64.607 105.7707,-50.0551 130.0946,-42.5473 168.0259,-30.8394 213.4591,-28.5655 245.6029,-28.7828"/>
<polygon fill="#000000" stroke="#000000" points="245.9118,-32.2878 255.9644,-28.9419 246.0194,-25.2887 245.9118,-32.2878"/>
<text text-anchor="middle" x="160.6419" y="-46.3473" font-family="Times,serif" font-size="14.00" fill="#000000">0/8</text>
</g>
<!-- LR_3 -->
<g id="node5" class="node">
<title>LR_3</title>
<ellipse fill="none" stroke="#000000" cx="160.6419" cy="-97.5473" rx="30.5947" ry="30.5947"/>
<text text-anchor="middle" x="160.6419" y="-93.8473" font-family="Times,serif" font-size="14.00" fill="#000000">LR_3</text>
</g>
<!-- LR_0&#45;&gt;LR_3 -->
<g id="edge9" class="edge">
<title>LR_0&#45;&gt;LR_3</title>
<path fill="none" stroke="#000000" d="M69.337,-97.5473C84.8845,-97.5473 103.3228,-97.5473 119.5454,-97.5473"/>
<polygon fill="#000000" stroke="#000000" points="119.8335,-101.0474 129.8335,-97.5473 119.8334,-94.0474 119.8335,-101.0474"/>
<text text-anchor="middle" x="99.5946" y="-101.3473" font-family="Times,serif" font-size="14.00" fill="#000000">0/10</text>
</g>
<!-- LR_4 -->
<g id="node4" class="node">
<title>LR_4</title>
<ellipse fill="none" stroke="#000000" cx="412.831" cy="-97.5473" rx="30.5947" ry="30.5947"/>
<text text-anchor="middle" x="412.831" y="-93.8473" font-family="Times,serif" font-size="14.00" fill="#000000">LR_4</text>
</g>
<!-- LR_1&#45;&gt;LR_4 -->
<g id="edge5" class="edge">
<title>LR_1&#45;&gt;LR_4</title>
<path fill="none" stroke="#000000" d="M316.6262,-148.1956C323.9994,-143.9949 331.8999,-139.5603 339.2837,-135.5473 351.2406,-129.0489 364.4142,-122.159 376.2686,-116.0563"/>
<polygon fill="#000000" stroke="#000000" points="378.1416,-119.0293 385.4443,-111.3533 374.9487,-112.7999 378.1416,-119.0293"/>
<text text-anchor="middle" x="351.7837" y="-139.3473" font-family="Times,serif" font-size="14.00" fill="#000000">0/1</text>
</g>
<!-- LR_5 -->
<g id="node6" class="node">
<title>LR_5</title>
<ellipse fill="none" stroke="#000000" cx="534.9256" cy="-131.5473" rx="30.5947" ry="30.5947"/>
<text text-anchor="middle" x="534.9256" y="-127.8473" font-family="Times,serif" font-size="14.00" fill="#000000">LR_5</text>
</g>
<!-- LR_1&#45;&gt;LR_5 -->
<g id="edge6" class="edge">
<title>LR_1&#45;&gt;LR_5</title>
<path fill="none" stroke="#000000" d="M320.9855,-160.8554C366.3285,-154.6438 446.1646,-143.7069 494.4398,-137.0935"/>
<polygon fill="#000000" stroke="#000000" points="495.0982,-140.5361 504.5306,-135.7112 494.1481,-133.6009 495.0982,-140.5361"/>
<text text-anchor="middle" x="412.831" y="-155.3473" font-family="Times,serif" font-size="14.00" fill="#000000">0/21</text>
</g>
<!-- LR_2&#45;&gt;LR_4 -->
<g id="edge1" class="edge">
<title>LR_2&#45;&gt;LR_4</title>
<path fill="none" stroke="#000000" d="M314.6555,-43.5397C329.5394,-50.6382 348.0744,-59.754 364.2837,-68.5473 368.7536,-70.9721 373.4021,-73.6029 377.974,-76.257"/>
<polygon fill="#000000" stroke="#000000" points="376.2118,-79.2811 386.6043,-81.3419 379.7652,-73.25 376.2118,-79.2811"/>
<text text-anchor="middle" x="351.7837" y="-72.3473" font-family="Times,serif" font-size="14.00" fill="#000000">0/12</text>
</g>
<!-- LR_4&#45;&gt;LR_5 -->
<g id="edge7" class="edge">
<title>LR_4&#45;&gt;LR_5</title>
<path fill="none" stroke="#000000" d="M442.3867,-105.7777C458.3156,-110.2135 478.1837,-115.7462 495.4225,-120.5467"/>
<polygon fill="#000000" stroke="#000000" points="494.6465,-123.9638 505.2189,-123.2748 496.5244,-117.2204 494.6465,-123.9638"/>
<text text-anchor="middle" x="473.8783" y="-121.3473" font-family="Times,serif" font-size="14.00" fill="#000000">0/14</text>
</g>
<!-- LR_3&#45;&gt;LR_1 -->
<g id="edge4" class="edge">
<title>LR_3&#45;&gt;LR_1</title>
<path fill="none" stroke="#000000" d="M188.0286,-111.3533C201.9285,-118.4473 219.0358,-127.3117 234.1892,-135.5473 238.6887,-137.9927 243.3801,-140.5947 248.0271,-143.2049"/>
<polygon fill="#000000" stroke="#000000" points="246.4198,-146.3168 256.8467,-148.1956 249.8672,-140.2246 246.4198,-146.3168"/>
<text text-anchor="middle" x="221.6892" y="-139.3473" font-family="Times,serif" font-size="14.00" fill="#000000">0/11</text>
</g>
<!-- LR_3&#45;&gt;LR_2 -->
<g id="edge3" class="edge">
<title>LR_3&#45;&gt;LR_2</title>
<path fill="none" stroke="#000000" d="M186.8686,-81.3419C194.0378,-77.0603 201.854,-72.5265 209.1892,-68.5473 222.2326,-61.4714 236.782,-54.1867 249.7231,-47.9124"/>
<polygon fill="#000000" stroke="#000000" points="251.3217,-51.0274 258.8174,-43.5397 248.2884,-44.7187 251.3217,-51.0274"/>
<text text-anchor="middle" x="221.6892" y="-72.3473" font-family="Times,serif" font-size="14.00" fill="#000000">0/2</text>
</g>
<!-- LR_3&#45;&gt;LR_4 -->
<g id="edge2" class="edge">
<title>LR_3&#45;&gt;LR_4</title>
<path fill="none" stroke="#000000" d="M191.3131,-97.5473C236.5341,-97.5473 321.1871,-97.5473 371.7366,-97.5473"/>
<polygon fill="#000000" stroke="#000000" points="371.9792,-101.0474 381.9792,-97.5473 371.9791,-94.0474 371.9792,-101.0474"/>
<text text-anchor="middle" x="286.7364" y="-101.3473" font-family="Times,serif" font-size="14.00" fill="#000000">0/5</text>
</g>
</g>
</svg>
