<?xml version="1.0" encoding="UTF-8" standalone="no"?>
<!DOCTYPE svg PUBLIC "-//W3C//DTD SVG 1.1//EN"
 "http://www.w3.org/Graphics/SVG/1.1/DTD/svg11.dtd">
<!-- Generated by graphviz version 2.40.1 (20161225.0304)
 -->
<!-- Title: finite_state_machine Pages: 1 -->
<svg width="146pt" height="360pt"
 viewBox="0.00 0.00 145.72 360.00" xmlns="http://www.w3.org/2000/svg" xmlns:xlink="http://www.w3.org/1999/xlink">
<g id="graph0" class="graph" transform="scale(.2563 .2563) rotate(0) translate(4 1400.6442)">
<title>finite_state_machine</title>
<polygon fill="#ffffff" stroke="transparent" points="-4,4 -4,-1400.6442 564.5767,-1400.6442 564.5767,4 -4,4"/>
<!-- LR_0 -->
<g id="node1" class="node">
<title>LR_0</title>
<ellipse fill="none" stroke="#000000" cx="34.5473" cy="-594.0969" rx="30.5892" ry="30.5892"/>
<ellipse fill="none" stroke="#000000" cx="34.5473" cy="-594.0969" rx="34.5946" ry="34.5946"/>
<text text-anchor="middle" x="34.5473" y="-590.3969" font-family="Times,serif" font-size="14.00" fill="#000000">LR_0</text>
</g>
<!-- LR_26 -->
<g id="node9" class="node">
<title>LR_26</title>
<ellipse fill="none" stroke="#000000" cx="198.1915" cy="-1179.0969" rx="35.194" ry="35.194"/>
<text text-anchor="middle" x="198.1915" y="-1175.3969" font-family="Times,serif" font-size="14.00" fill="#000000">LR_26</text>
</g>
<!-- LR_0&#45;&gt;LR_26 -->
<g id="edge39" class="edge">
<title>LR_0&#45;&gt;LR_26</title>
<path fill="none" stroke="#000000" d="M35.4406,-628.9626C38.3601,-724.8084 49.6968,-990.3047 87.0946,-1068.0969 103.7235,-1102.6871 135.6555,-1132.7985 161.0334,-1152.8981"/>
<polygon fill="#000000" stroke="#000000" points="158.962,-1155.7206 169.0151,-1159.0651 163.2419,-1150.1814 158.962,-1155.7206"/>
<text text-anchor="middle" x="116.0946" y="-1139.8969" font-family="Times,serif" font-size="14.00" fill="#000000">0/1/cost=0</text>
</g>
<!-- LR_28 -->
<g id="node12" class="node">
<title>LR_28</title>
<ellipse fill="none" stroke="#000000" cx="198.1915" cy="-1003.0969" rx="35.194" ry="35.194"/>
<text text-anchor="middle" x="198.1915" y="-999.3969" font-family="Times,serif" font-size="14.00" fill="#000000">LR_28</text>
</g>
<!-- LR_0&#45;&gt;LR_28 -->
<g id="edge40" class="edge">
<title>LR_0&#45;&gt;LR_28</title>
<path fill="none" stroke="#000000" d="M38.0735,-628.5422C45.44,-696.4214 63.733,-844.8153 87.0946,-890.0969 104.8506,-924.5132 136.6701,-955.2466 161.7186,-975.9415"/>
<polygon fill="#000000" stroke="#000000" points="159.6091,-978.7368 169.5868,-982.2998 164.0088,-973.2922 159.6091,-978.7368"/>
<text text-anchor="middle" x="116.0946" y="-963.8969" font-family="Times,serif" font-size="14.00" fill="#000000">0/1/cost=0</text>
</g>
<!-- LR_15 -->
<g id="node14" class="node">
<title>LR_15</title>
<ellipse fill="none" stroke="#000000" cx="198.1915" cy="-739.0969" rx="35.194" ry="35.194"/>
<text text-anchor="middle" x="198.1915" y="-735.3969" font-family="Times,serif" font-size="14.00" fill="#000000">LR_15</text>
</g>
<!-- LR_0&#45;&gt;LR_15 -->
<g id="edge41" class="edge">
<title>LR_0&#45;&gt;LR_15</title>
<path fill="none" stroke="#000000" d="M57.6166,-620.2052C66.5368,-629.8875 77.0124,-640.7737 87.0946,-650.0969 110.9067,-672.1164 139.5006,-694.9486 161.716,-711.9738"/>
<polygon fill="#000000" stroke="#000000" points="159.818,-714.9277 169.8947,-718.2007 164.0584,-709.3582 159.818,-714.9277"/>
<text text-anchor="middle" x="116.0946" y="-701.8969" font-family="Times,serif" font-size="14.00" fill="#000000">1/1/cost=0</text>
</g>
<!-- LR_16 -->
<g id="node15" class="node">
<title>LR_16</title>
<ellipse fill="none" stroke="#000000" cx="198.1915" cy="-915.0969" rx="35.194" ry="35.194"/>
<text text-anchor="middle" x="198.1915" y="-911.3969" font-family="Times,serif" font-size="14.00" fill="#000000">LR_16</text>
</g>
<!-- LR_0&#45;&gt;LR_16 -->
<g id="edge42" class="edge">
<title>LR_0&#45;&gt;LR_16</title>
<path fill="none" stroke="#000000" d="M37.862,-628.545C43.1504,-671.154 56.2516,-744.8205 87.0946,-800.0969 106.135,-834.221 137.8265,-865.5882 162.4993,-886.913"/>
<polygon fill="#000000" stroke="#000000" points="160.3475,-889.6772 170.2385,-893.4745 164.8743,-884.3379 160.3475,-889.6772"/>
<text text-anchor="middle" x="116.0946" y="-874.8969" font-family="Times,serif" font-size="14.00" fill="#000000">1/1/cost=0</text>
</g>
<!-- LR_17 -->
<g id="node16" class="node">
<title>LR_17</title>
<ellipse fill="none" stroke="#000000" cx="198.1915" cy="-475.0969" rx="35.194" ry="35.194"/>
<text text-anchor="middle" x="198.1915" y="-471.3969" font-family="Times,serif" font-size="14.00" fill="#000000">LR_17</text>
</g>
<!-- LR_0&#45;&gt;LR_17 -->
<g id="edge43" class="edge">
<title>LR_0&#45;&gt;LR_17</title>
<path fill="none" stroke="#000000" d="M62.3085,-573.3771C70.2925,-567.4495 79.0238,-560.9973 87.0946,-555.0969 111.6556,-537.1407 139.4318,-517.1394 161.0667,-501.6277"/>
<polygon fill="#000000" stroke="#000000" points="163.2453,-504.3725 169.3358,-495.7032 159.1684,-498.6822 163.2453,-504.3725"/>
<text text-anchor="middle" x="116.0946" y="-558.8969" font-family="Times,serif" font-size="14.00" fill="#000000">1/1/cost=0</text>
</g>
<!-- LR_18 -->
<g id="node18" class="node">
<title>LR_18</title>
<ellipse fill="none" stroke="#000000" cx="198.1915" cy="-123.0969" rx="35.194" ry="35.194"/>
<text text-anchor="middle" x="198.1915" y="-119.3969" font-family="Times,serif" font-size="14.00" fill="#000000">LR_18</text>
</g>
<!-- LR_0&#45;&gt;LR_18 -->
<g id="edge44" class="edge">
<title>LR_0&#45;&gt;LR_18</title>
<path fill="none" stroke="#000000" d="M36.9163,-559.5571C42.707,-481.426 59.1818,-293.5315 87.0946,-237.0969 104.3411,-202.2275 136.2115,-171.2369 161.4089,-150.4023"/>
<polygon fill="#000000" stroke="#000000" points="163.7503,-153.0102 169.3284,-144.0027 159.3506,-147.5657 163.7503,-153.0102"/>
<text text-anchor="middle" x="116.0946" y="-240.8969" font-family="Times,serif" font-size="14.00" fill="#000000">1/1/cost=0</text>
</g>
<!-- LR_19 -->
<g id="node21" class="node">
<title>LR_19</title>
<ellipse fill="none" stroke="#000000" cx="198.1915" cy="-563.0969" rx="35.194" ry="35.194"/>
<text text-anchor="middle" x="198.1915" y="-559.3969" font-family="Times,serif" font-size="14.00" fill="#000000">LR_19</text>
</g>
<!-- LR_0&#45;&gt;LR_19 -->
<g id="edge45" class="edge">
<title>LR_0&#45;&gt;LR_19</title>
<path fill="none" stroke="#000000" d="M68.8525,-587.5983C93.5347,-582.9226 127.0451,-576.5745 153.7715,-571.5116"/>
<polygon fill="#000000" stroke="#000000" points="154.4762,-574.9404 163.65,-569.6403 153.1733,-568.0627 154.4762,-574.9404"/>
<text text-anchor="middle" x="116.0946" y="-587.8969" font-family="Times,serif" font-size="14.00" fill="#000000">1/1/cost=0</text>
</g>
<!-- LR_20 -->
<g id="node23" class="node">
<title>LR_20</title>
<ellipse fill="none" stroke="#000000" cx="198.1915" cy="-1091.0969" rx="35.194" ry="35.194"/>
<text text-anchor="middle" x="198.1915" y="-1087.3969" font-family="Times,serif" font-size="14.00" fill="#000000">LR_20</text>
</g>
<!-- LR_0&#45;&gt;LR_20 -->
<g id="edge46" class="edge">
<title>LR_0&#45;&gt;LR_20</title>
<path fill="none" stroke="#000000" d="M36.4746,-628.8745C41.5044,-711.5857 56.7887,-917.6969 87.0946,-979.0969 104.1582,-1013.6679 136.0468,-1044.0835 161.2977,-1064.461"/>
<polygon fill="#000000" stroke="#000000" points="159.215,-1067.2759 169.2356,-1070.7168 163.5479,-1061.7781 159.215,-1067.2759"/>
<text text-anchor="middle" x="116.0946" y="-1052.8969" font-family="Times,serif" font-size="14.00" fill="#000000">1/1/cost=0</text>
</g>
<!-- LR_21 -->
<g id="node24" class="node">
<title>LR_21</title>
<ellipse fill="none" stroke="#000000" cx="198.1915" cy="-387.0969" rx="35.194" ry="35.194"/>
<text text-anchor="middle" x="198.1915" y="-383.3969" font-family="Times,serif" font-size="14.00" fill="#000000">LR_21</text>
</g>
<!-- LR_0&#45;&gt;LR_21 -->
<g id="edge47" class="edge">
<title>LR_0&#45;&gt;LR_21</title>
<path fill="none" stroke="#000000" d="M48.3121,-562.2845C57.781,-542.0997 71.4447,-515.9526 87.0946,-495.0969 109.2876,-465.5215 139.679,-436.5687 163.0656,-416.0971"/>
<polygon fill="#000000" stroke="#000000" points="165.4307,-418.6791 170.7063,-409.4911 160.8525,-413.3838 165.4307,-418.6791"/>
<text text-anchor="middle" x="116.0946" y="-498.8969" font-family="Times,serif" font-size="14.00" fill="#000000">1/1/cost=0</text>
</g>
<!-- LR_23 -->
<g id="node25" class="node">
<title>LR_23</title>
<ellipse fill="none" stroke="#000000" cx="198.1915" cy="-211.0969" rx="35.194" ry="35.194"/>
<text text-anchor="middle" x="198.1915" y="-207.3969" font-family="Times,serif" font-size="14.00" fill="#000000">LR_23</text>
</g>
<!-- LR_0&#45;&gt;LR_23 -->
<g id="edge48" class="edge">
<title>LR_0&#45;&gt;LR_23</title>
<path fill="none" stroke="#000000" d="M38.8101,-559.7885C47.0096,-497.0244 66.0403,-366.4519 87.0946,-326.0969 105.1698,-291.4518 136.9575,-260.1365 161.9126,-238.9641"/>
<polygon fill="#000000" stroke="#000000" points="164.2928,-241.537 169.7488,-232.455 159.82,-236.1524 164.2928,-241.537"/>
<text text-anchor="middle" x="116.0946" y="-329.8969" font-family="Times,serif" font-size="14.00" fill="#000000">1/1/cost=0</text>
</g>
<!-- LR_25 -->
<g id="node26" class="node">
<title>LR_25</title>
<ellipse fill="none" stroke="#000000" cx="198.1915" cy="-651.0969" rx="35.194" ry="35.194"/>
<text text-anchor="middle" x="198.1915" y="-647.3969" font-family="Times,serif" font-size="14.00" fill="#000000">LR_25</text>
</g>
<!-- LR_0&#45;&gt;LR_25 -->
<g id="edge49" class="edge">
<title>LR_0&#45;&gt;LR_25</title>
<path fill="none" stroke="#000000" d="M67.2698,-605.4947C92.5234,-614.2909 127.6791,-626.5362 155.2024,-636.1231"/>
<polygon fill="#000000" stroke="#000000" points="154.3699,-639.5393 164.9647,-639.5235 156.6725,-632.9288 154.3699,-639.5393"/>
<text text-anchor="middle" x="116.0946" y="-634.8969" font-family="Times,serif" font-size="14.00" fill="#000000">1/1/cost=0</text>
</g>
<!-- LR_24 -->
<g id="node27" class="node">
<title>LR_24</title>
<ellipse fill="none" stroke="#000000" cx="198.1915" cy="-35.0969" rx="35.194" ry="35.194"/>
<text text-anchor="middle" x="198.1915" y="-31.3969" font-family="Times,serif" font-size="14.00" fill="#000000">LR_24</text>
</g>
<!-- LR_0&#45;&gt;LR_24 -->
<g id="edge50" class="edge">
<title>LR_0&#45;&gt;LR_24</title>
<path fill="none" stroke="#000000" d="M35.7512,-559.3299C39.3823,-467.557 52.2065,-220.8602 87.0946,-148.0969 103.8916,-113.0648 135.9632,-82.2969 161.3465,-61.7487"/>
<polygon fill="#000000" stroke="#000000" points="163.649,-64.3901 169.3249,-55.4439 159.3089,-58.898 163.649,-64.3901"/>
<text text-anchor="middle" x="116.0946" y="-151.8969" font-family="Times,serif" font-size="14.00" fill="#000000">1/1/cost=0</text>
</g>
<!-- LR_22 -->
<g id="node28" class="node">
<title>LR_22</title>
<ellipse fill="none" stroke="#000000" cx="198.1915" cy="-827.0969" rx="35.194" ry="35.194"/>
<text text-anchor="middle" x="198.1915" y="-823.3969" font-family="Times,serif" font-size="14.00" fill="#000000">LR_22</text>
</g>
<!-- LR_0&#45;&gt;LR_22 -->
<g id="edge51" class="edge">
<title>LR_0&#45;&gt;LR_22</title>
<path fill="none" stroke="#000000" d="M44.7579,-627.1798C53.6231,-652.9955 68.0341,-689.0592 87.0946,-717.0969 108.2078,-748.1541 138.9509,-777.772 162.7474,-798.4344"/>
<polygon fill="#000000" stroke="#000000" points="160.6524,-801.2482 170.5272,-805.0875 165.202,-795.9282 160.6524,-801.2482"/>
<text text-anchor="middle" x="116.0946" y="-784.8969" font-family="Times,serif" font-size="14.00" fill="#000000">1/1/cost=0</text>
</g>
<!-- LR_27 -->
<g id="node29" class="node">
<title>LR_27</title>
<ellipse fill="none" stroke="#000000" cx="198.1915" cy="-299.0969" rx="35.194" ry="35.194"/>
<text text-anchor="middle" x="198.1915" y="-295.3969" font-family="Times,serif" font-size="14.00" fill="#000000">LR_27</text>
</g>
<!-- LR_0&#45;&gt;LR_27 -->
<g id="edge52" class="edge">
<title>LR_0&#45;&gt;LR_27</title>
<path fill="none" stroke="#000000" d="M39.5984,-559.8554C46.2338,-522.3391 60.3249,-461.3483 87.0946,-415.0969 106.7576,-381.124 138.387,-349.4393 162.8778,-327.7982"/>
<polygon fill="#000000" stroke="#000000" points="165.2969,-330.333 170.5543,-321.1346 160.7082,-325.0468 165.2969,-330.333"/>
<text text-anchor="middle" x="116.0946" y="-418.8969" font-family="Times,serif" font-size="14.00" fill="#000000">1/1/cost=0</text>
</g>
<!-- LR_1 -->
<g id="node2" class="node">
<title>LR_1</title>
<ellipse fill="none" stroke="#000000" cx="526.0294" cy="-878.0969" rx="30.5892" ry="30.5892"/>
<ellipse fill="none" stroke="#000000" cx="526.0294" cy="-878.0969" rx="34.5946" ry="34.5946"/>
<text text-anchor="middle" x="526.0294" y="-874.3969" font-family="Times,serif" font-size="14.00" fill="#000000">LR_1</text>
</g>
<!-- LR_3 -->
<g id="node3" class="node">
<title>LR_3</title>
<ellipse fill="none" stroke="#000000" cx="362.3852" cy="-1366.0969" rx="30.5947" ry="30.5947"/>
<text text-anchor="middle" x="362.3852" y="-1362.3969" font-family="Times,serif" font-size="14.00" fill="#000000">LR_3</text>
</g>
<!-- LR_3&#45;&gt;LR_1 -->
<g id="edge1" class="edge">
<title>LR_3&#45;&gt;LR_1</title>
<path fill="none" stroke="#000000" d="M389.3526,-1350.8572C415.5349,-1334.5041 454.0822,-1305.9732 473.4821,-1270.0969 505.4879,-1210.9087 519.2865,-1012.5881 523.9969,-922.8621"/>
<polygon fill="#000000" stroke="#000000" points="527.4996,-922.8959 524.5142,-912.7304 520.5087,-922.5389 527.4996,-922.8959"/>
<text text-anchor="middle" x="444.4821" y="-1333.8969" font-family="Times,serif" font-size="14.00" fill="#000000">0/2/cost=0</text>
</g>
<!-- LR_4 -->
<g id="node4" class="node">
<title>LR_4</title>
<ellipse fill="none" stroke="#000000" cx="362.3852" cy="-1287.0969" rx="30.5947" ry="30.5947"/>
<text text-anchor="middle" x="362.3852" y="-1283.3969" font-family="Times,serif" font-size="14.00" fill="#000000">LR_4</text>
</g>
<!-- LR_4&#45;&gt;LR_1 -->
<g id="edge2" class="edge">
<title>LR_4&#45;&gt;LR_1</title>
<path fill="none" stroke="#000000" d="M389.1005,-1271.4898C415.0867,-1254.8041 453.4845,-1225.8524 473.4821,-1190.0969 498.7063,-1144.9964 515.2373,-997.6573 522.2281,-922.7245"/>
<polygon fill="#000000" stroke="#000000" points="525.724,-922.9276 523.1511,-912.6499 518.7532,-922.2889 525.724,-922.9276"/>
<text text-anchor="middle" x="444.4821" y="-1254.8969" font-family="Times,serif" font-size="14.00" fill="#000000">0/2/cost=0</text>
</g>
<!-- LR_5 -->
<g id="node5" class="node">
<title>LR_5</title>
<ellipse fill="none" stroke="#000000" cx="362.3852" cy="-1208.0969" rx="30.5947" ry="30.5947"/>
<text text-anchor="middle" x="362.3852" y="-1204.3969" font-family="Times,serif" font-size="14.00" fill="#000000">LR_5</text>
</g>
<!-- LR_5&#45;&gt;LR_1 -->
<g id="edge3" class="edge">
<title>LR_5&#45;&gt;LR_1</title>
<path fill="none" stroke="#000000" d="M388.6807,-1192.0208C414.3404,-1174.9234 452.4894,-1145.4905 473.4821,-1110.0969 492.0647,-1078.7667 509.9891,-980.4499 519.3385,-922.3439"/>
<polygon fill="#000000" stroke="#000000" points="522.816,-922.761 520.9281,-912.3357 515.9027,-921.6629 522.816,-922.761"/>
<text text-anchor="middle" x="444.4821" y="-1174.8969" font-family="Times,serif" font-size="14.00" fill="#000000">0/2/cost=0</text>
</g>
<!-- LR_6 -->
<g id="node6" class="node">
<title>LR_6</title>
<ellipse fill="none" stroke="#000000" cx="362.3852" cy="-1129.0969" rx="30.5947" ry="30.5947"/>
<text text-anchor="middle" x="362.3852" y="-1125.3969" font-family="Times,serif" font-size="14.00" fill="#000000">LR_6</text>
</g>
<!-- LR_6&#45;&gt;LR_1 -->
<g id="edge4" class="edge">
<title>LR_6&#45;&gt;LR_1</title>
<path fill="none" stroke="#000000" d="M387.8439,-1112.0464C412.8528,-1094.0974 450.5059,-1063.6809 473.4821,-1029.0969 495.2423,-996.3432 509.0109,-953.5983 516.9689,-921.9507"/>
<polygon fill="#000000" stroke="#000000" points="520.4043,-922.6346 519.3513,-912.0922 513.6002,-920.9903 520.4043,-922.6346"/>
<text text-anchor="middle" x="444.4821" y="-1094.8969" font-family="Times,serif" font-size="14.00" fill="#000000">0/2/cost=0</text>
</g>
<!-- LR_7 -->
<g id="node7" class="node">
<title>LR_7</title>
<ellipse fill="none" stroke="#000000" cx="362.3852" cy="-1050.0969" rx="30.5947" ry="30.5947"/>
<text text-anchor="middle" x="362.3852" y="-1046.3969" font-family="Times,serif" font-size="14.00" fill="#000000">LR_7</text>
</g>
<!-- LR_7&#45;&gt;LR_1 -->
<g id="edge5" class="edge">
<title>LR_7&#45;&gt;LR_1</title>
<path fill="none" stroke="#000000" d="M387.4435,-1031.7709C411.1216,-1013.7687 446.8795,-984.758 473.4821,-955.0969 484.0179,-943.3498 494.1506,-929.3815 502.6589,-916.588"/>
<polygon fill="#000000" stroke="#000000" points="505.7528,-918.2506 508.2748,-907.9603 499.8862,-914.4319 505.7528,-918.2506"/>
<text text-anchor="middle" x="444.4821" y="-1013.8969" font-family="Times,serif" font-size="14.00" fill="#000000">0/2/cost=0</text>
</g>
<!-- LR_10 -->
<g id="node8" class="node">
<title>LR_10</title>
<ellipse fill="none" stroke="#000000" cx="362.3852" cy="-966.0969" rx="35.194" ry="35.194"/>
<text text-anchor="middle" x="362.3852" y="-962.3969" font-family="Times,serif" font-size="14.00" fill="#000000">LR_10</text>
</g>
<!-- LR_10&#45;&gt;LR_1 -->
<g id="edge6" class="edge">
<title>LR_10&#45;&gt;LR_1</title>
<path fill="none" stroke="#000000" d="M393.5506,-949.3376C419.9929,-935.1182 458.0719,-914.6412 486.625,-899.2867"/>
<polygon fill="#000000" stroke="#000000" points="488.3843,-902.3146 495.534,-894.4959 485.069,-896.1495 488.3843,-902.3146"/>
<text text-anchor="middle" x="444.4821" y="-939.8969" font-family="Times,serif" font-size="14.00" fill="#000000">0/2/cost=0</text>
</g>
<!-- LR_14 -->
<g id="node10" class="node">
<title>LR_14</title>
<ellipse fill="none" stroke="#000000" cx="362.3852" cy="-878.0969" rx="35.194" ry="35.194"/>
<text text-anchor="middle" x="362.3852" y="-874.3969" font-family="Times,serif" font-size="14.00" fill="#000000">LR_14</text>
</g>
<!-- LR_26&#45;&gt;LR_14 -->
<g id="edge7" class="edge">
<title>LR_26&#45;&gt;LR_14</title>
<path fill="none" stroke="#000000" d="M233.2656,-1180.5924C258.3801,-1179.602 290.8891,-1173.7101 309.2884,-1152.0969 342.5209,-1113.0592 308.4768,-969.7883 327.2884,-922.0969 328.6598,-918.62 330.4049,-915.1999 332.3814,-911.8971"/>
<polygon fill="#000000" stroke="#000000" points="335.3735,-913.7199 338.0562,-903.4703 329.5673,-909.8099 335.3735,-913.7199"/>
<text text-anchor="middle" x="280.2884" y="-1181.8969" font-family="Times,serif" font-size="14.00" fill="#000000">0/1/cost=0</text>
</g>
<!-- LR_9 -->
<g id="node11" class="node">
<title>LR_9</title>
<ellipse fill="none" stroke="#000000" cx="362.3852" cy="-794.0969" rx="30.5947" ry="30.5947"/>
<text text-anchor="middle" x="362.3852" y="-790.3969" font-family="Times,serif" font-size="14.00" fill="#000000">LR_9</text>
</g>
<!-- LR_26&#45;&gt;LR_9 -->
<g id="edge8" class="edge">
<title>LR_26&#45;&gt;LR_9</title>
<path fill="none" stroke="#000000" d="M223.2964,-1154.297C231.727,-1146.83 241.4889,-1139.0474 251.2884,-1133.0969 274.9912,-1118.7038 292.969,-1132.5171 309.2884,-1110.0969 345.4594,-1060.4035 303.7693,-890.8827 327.2884,-834.0969 328.9189,-830.1599 331.1013,-826.343 333.5837,-822.7309"/>
<polygon fill="#000000" stroke="#000000" points="336.4388,-824.7606 339.8019,-814.7137 330.9075,-820.4705 336.4388,-824.7606"/>
<text text-anchor="middle" x="280.2884" y="-1136.8969" font-family="Times,serif" font-size="14.00" fill="#000000">0/1/cost=1</text>
</g>
<!-- LR_14&#45;&gt;LR_1 -->
<g id="edge24" class="edge">
<title>LR_14&#45;&gt;LR_1</title>
<path fill="none" stroke="#000000" d="M397.491,-878.0969C421.9491,-878.0969 454.7821,-878.0969 481.1424,-878.0969"/>
<polygon fill="#000000" stroke="#000000" points="481.2629,-881.597 491.2629,-878.0969 481.2629,-874.597 481.2629,-881.597"/>
<text text-anchor="middle" x="444.4821" y="-881.8969" font-family="Times,serif" font-size="14.00" fill="#000000">2/2/cost=0</text>
</g>
<!-- LR_9&#45;&gt;LR_1 -->
<g id="edge21" class="edge">
<title>LR_9&#45;&gt;LR_1</title>
<path fill="none" stroke="#000000" d="M389.7756,-808.1566C416.1619,-821.7009 456.3699,-842.34 486.277,-857.6916"/>
<polygon fill="#000000" stroke="#000000" points="484.7064,-860.8195 495.2011,-862.2725 487.903,-854.5921 484.7064,-860.8195"/>
<text text-anchor="middle" x="444.4821" y="-854.8969" font-family="Times,serif" font-size="14.00" fill="#000000">2/2/cost=0</text>
</g>
<!-- LR_28&#45;&gt;LR_14 -->
<g id="edge9" class="edge">
<title>LR_28&#45;&gt;LR_14</title>
<path fill="none" stroke="#000000" d="M233.3541,-1003.0785C257.5285,-1001.222 288.8372,-994.9108 309.2884,-976.0969 327.9066,-958.9691 315.2146,-944.328 327.2884,-922.0969 328.9716,-918.9976 330.8778,-915.8976 332.9108,-912.8587"/>
<polygon fill="#000000" stroke="#000000" points="335.9153,-914.6747 338.8955,-904.5076 330.2255,-910.5971 335.9153,-914.6747"/>
<text text-anchor="middle" x="280.2884" y="-1004.8969" font-family="Times,serif" font-size="14.00" fill="#000000">0/1/cost=0</text>
</g>
<!-- LR_2 -->
<g id="node13" class="node">
<title>LR_2</title>
<ellipse fill="none" stroke="#000000" cx="362.3852" cy="-715.0969" rx="30.5947" ry="30.5947"/>
<text text-anchor="middle" x="362.3852" y="-711.3969" font-family="Times,serif" font-size="14.00" fill="#000000">LR_2</text>
</g>
<!-- LR_28&#45;&gt;LR_2 -->
<g id="edge10" class="edge">
<title>LR_28&#45;&gt;LR_2</title>
<path fill="none" stroke="#000000" d="M224.1977,-979.0083C232.5963,-971.659 242.1126,-963.765 251.2884,-957.0969 275.644,-939.3974 293.1101,-947.4885 309.2884,-922.0969 349.64,-858.7656 296.6849,-822.672 327.2884,-754.0969 328.9124,-750.4577 331.0065,-746.9233 333.3624,-743.5643"/>
<polygon fill="#000000" stroke="#000000" points="336.1887,-745.6327 339.6395,-735.6156 330.6951,-741.2944 336.1887,-745.6327"/>
<text text-anchor="middle" x="280.2884" y="-960.8969" font-family="Times,serif" font-size="14.00" fill="#000000">0/1/cost=1</text>
</g>
<!-- LR_2&#45;&gt;LR_1 -->
<g id="edge55" class="edge">
<title>LR_2&#45;&gt;LR_1</title>
<path fill="none" stroke="#000000" d="M387.8254,-732.6807C411.4538,-749.6843 446.8917,-776.9469 473.4821,-805.0969 483.5776,-815.7845 493.3547,-828.4844 501.6821,-840.271"/>
<polygon fill="#000000" stroke="#000000" points="498.9085,-842.4139 507.4734,-848.6503 504.6669,-838.4339 498.9085,-842.4139"/>
<text text-anchor="middle" x="444.4821" y="-808.8969" font-family="Times,serif" font-size="14.00" fill="#000000">3/3/cost=0</text>
</g>
<!-- LR_15&#45;&gt;LR_9 -->
<g id="edge11" class="edge">
<title>LR_15&#45;&gt;LR_9</title>
<path fill="none" stroke="#000000" d="M233.4016,-739.3156C255.8576,-740.5384 285.166,-744.1835 309.2884,-754.0969 317.0194,-757.274 324.6256,-761.8548 331.559,-766.7908"/>
<polygon fill="#000000" stroke="#000000" points="329.8591,-769.8946 339.9401,-773.1541 334.092,-764.3194 329.8591,-769.8946"/>
<text text-anchor="middle" x="280.2884" y="-757.8969" font-family="Times,serif" font-size="14.00" fill="#000000">0/1/cost=1</text>
</g>
<!-- LR_15&#45;&gt;LR_2 -->
<g id="edge12" class="edge">
<title>LR_15&#45;&gt;LR_2</title>
<path fill="none" stroke="#000000" d="M229.5163,-723.0888C236.5113,-720.2106 244.016,-717.6385 251.2884,-716.0969 274.21,-711.238 300.3935,-710.7652 321.5821,-711.61"/>
<polygon fill="#000000" stroke="#000000" points="321.688,-715.1199 331.854,-712.1362 322.0462,-708.1291 321.688,-715.1199"/>
<text text-anchor="middle" x="280.2884" y="-719.8969" font-family="Times,serif" font-size="14.00" fill="#000000">1/1/cost=0</text>
</g>
<!-- LR_16&#45;&gt;LR_14 -->
<g id="edge14" class="edge">
<title>LR_16&#45;&gt;LR_14</title>
<path fill="none" stroke="#000000" d="M232.7229,-907.335C254.6539,-902.4032 283.6384,-895.8813 309.2884,-890.0969 312.2356,-889.4322 315.2748,-888.7465 318.337,-888.0552"/>
<polygon fill="#000000" stroke="#000000" points="319.128,-891.4648 328.1113,-885.8478 317.5859,-884.6367 319.128,-891.4648"/>
<text text-anchor="middle" x="280.2884" y="-906.8969" font-family="Times,serif" font-size="14.00" fill="#000000">1/1/cost=0</text>
</g>
<!-- LR_16&#45;&gt;LR_2 -->
<g id="edge13" class="edge">
<title>LR_16&#45;&gt;LR_2</title>
<path fill="none" stroke="#000000" d="M224.4882,-891.7691C232.8208,-884.8016 242.2269,-877.358 251.2884,-871.0969 275.6884,-854.2374 291.7603,-862.0212 309.2884,-838.0969 331.8533,-807.2975 309.931,-788.1043 327.2884,-754.0969 329.0043,-750.735 331.0842,-747.4396 333.3654,-744.2773"/>
<polygon fill="#000000" stroke="#000000" points="336.2594,-746.2622 339.7621,-736.2631 330.7884,-741.8954 336.2594,-746.2622"/>
<text text-anchor="middle" x="280.2884" y="-874.8969" font-family="Times,serif" font-size="14.00" fill="#000000">0/1/cost=1</text>
</g>
<!-- LR_17&#45;&gt;LR_9 -->
<g id="edge16" class="edge">
<title>LR_17&#45;&gt;LR_9</title>
<path fill="none" stroke="#000000" d="M230.4253,-489.5261C259.7534,-503.3517 299.8636,-524.2511 309.2884,-539.0969 335.1038,-579.7609 308.1791,-710.8833 327.2884,-755.0969 328.8694,-758.755 330.9351,-762.3018 333.2736,-765.6685"/>
<polygon fill="#000000" stroke="#000000" points="330.5971,-767.9271 339.5279,-773.6272 336.1009,-763.6019 330.5971,-767.9271"/>
<text text-anchor="middle" x="280.2884" y="-542.8969" font-family="Times,serif" font-size="14.00" fill="#000000">1/1/cost=0</text>
</g>
<!-- LR_8 -->
<g id="node17" class="node">
<title>LR_8</title>
<ellipse fill="none" stroke="#000000" cx="362.3852" cy="-475.0969" rx="30.5947" ry="30.5947"/>
<text text-anchor="middle" x="362.3852" y="-471.3969" font-family="Times,serif" font-size="14.00" fill="#000000">LR_8</text>
</g>
<!-- LR_17&#45;&gt;LR_8 -->
<g id="edge15" class="edge">
<title>LR_17&#45;&gt;LR_8</title>
<path fill="none" stroke="#000000" d="M233.4151,-475.0969C259.2031,-475.0969 294.2706,-475.0969 321.3297,-475.0969"/>
<polygon fill="#000000" stroke="#000000" points="321.6417,-478.597 331.6416,-475.0969 321.6416,-471.597 321.6417,-478.597"/>
<text text-anchor="middle" x="280.2884" y="-478.8969" font-family="Times,serif" font-size="14.00" fill="#000000">0/1/cost=1</text>
</g>
<!-- LR_8&#45;&gt;LR_1 -->
<g id="edge30" class="edge">
<title>LR_8&#45;&gt;LR_1</title>
<path fill="none" stroke="#000000" d="M382.4531,-498.2309C407.542,-528.3771 450.0345,-583.6877 473.4821,-638.0969 501.377,-702.8256 515.1544,-783.9891 521.4171,-833.4003"/>
<polygon fill="#000000" stroke="#000000" points="517.9571,-833.942 522.6418,-843.4449 524.9056,-833.0948 517.9571,-833.942"/>
<text text-anchor="middle" x="444.4821" y="-641.8969" font-family="Times,serif" font-size="14.00" fill="#000000">1/3/cost=0</text>
</g>
<!-- LR_11 -->
<g id="node19" class="node">
<title>LR_11</title>
<ellipse fill="none" stroke="#000000" cx="362.3852" cy="-123.0969" rx="35.194" ry="35.194"/>
<text text-anchor="middle" x="362.3852" y="-119.3969" font-family="Times,serif" font-size="14.00" fill="#000000">LR_11</text>
</g>
<!-- LR_18&#45;&gt;LR_11 -->
<g id="edge17" class="edge">
<title>LR_18&#45;&gt;LR_11</title>
<path fill="none" stroke="#000000" d="M233.4151,-123.0969C257.8721,-123.0969 290.6754,-123.0969 317.0783,-123.0969"/>
<polygon fill="#000000" stroke="#000000" points="317.2198,-126.597 327.2198,-123.0969 317.2198,-119.597 317.2198,-126.597"/>
<text text-anchor="middle" x="280.2884" y="-126.8969" font-family="Times,serif" font-size="14.00" fill="#000000">0/1/cost=1</text>
</g>
<!-- LR_13 -->
<g id="node20" class="node">
<title>LR_13</title>
<ellipse fill="none" stroke="#000000" cx="362.3852" cy="-299.0969" rx="35.194" ry="35.194"/>
<text text-anchor="middle" x="362.3852" y="-295.3969" font-family="Times,serif" font-size="14.00" fill="#000000">LR_13</text>
</g>
<!-- LR_18&#45;&gt;LR_13 -->
<g id="edge18" class="edge">
<title>LR_18&#45;&gt;LR_13</title>
<path fill="none" stroke="#000000" d="M231.0531,-136.0789C259.4843,-147.8352 297.7851,-165.1008 309.2884,-177.0969 329.9657,-198.6601 343.3024,-229.5738 351.4381,-254.8866"/>
<polygon fill="#000000" stroke="#000000" points="348.1458,-256.0899 354.408,-264.6359 354.842,-254.05 348.1458,-256.0899"/>
<text text-anchor="middle" x="280.2884" y="-180.8969" font-family="Times,serif" font-size="14.00" fill="#000000">1/1/cost=0</text>
</g>
<!-- LR_11&#45;&gt;LR_1 -->
<g id="edge36" class="edge">
<title>LR_11&#45;&gt;LR_1</title>
<path fill="none" stroke="#000000" d="M379.6886,-153.6427C404.9386,-199.7867 451.2836,-290.7484 473.4821,-374.0969 496.4619,-460.3789 516.0375,-726.7146 523.1592,-833.3145"/>
<polygon fill="#000000" stroke="#000000" points="519.6752,-833.6732 523.8289,-843.4199 526.6598,-833.2103 519.6752,-833.6732"/>
<text text-anchor="middle" x="444.4821" y="-377.8969" font-family="Times,serif" font-size="14.00" fill="#000000">1/2/cost=0</text>
</g>
<!-- LR_13&#45;&gt;LR_1 -->
<g id="edge27" class="edge">
<title>LR_13&#45;&gt;LR_1</title>
<path fill="none" stroke="#000000" d="M381.0307,-328.9796C406.1923,-370.7641 450.5057,-449.7785 473.4821,-523.0969 507.349,-631.1669 519.6144,-764.7503 523.8799,-833.1277"/>
<polygon fill="#000000" stroke="#000000" points="520.4108,-833.7533 524.4978,-843.5281 527.3984,-833.3381 520.4108,-833.7533"/>
<text text-anchor="middle" x="444.4821" y="-526.8969" font-family="Times,serif" font-size="14.00" fill="#000000">2/2/cost=0</text>
</g>
<!-- LR_19&#45;&gt;LR_9 -->
<g id="edge20" class="edge">
<title>LR_19&#45;&gt;LR_9</title>
<path fill="none" stroke="#000000" d="M231.8996,-573.24C264.1145,-583.0051 307.9893,-596.5225 309.2884,-598.0969 331.6385,-625.1839 312.858,-723.0813 327.2884,-755.0969 328.9259,-758.73 331.0288,-762.2604 333.3902,-765.617"/>
<polygon fill="#000000" stroke="#000000" points="330.7258,-767.8904 339.6745,-773.5625 336.2161,-763.548 330.7258,-767.8904"/>
<text text-anchor="middle" x="280.2884" y="-601.8969" font-family="Times,serif" font-size="14.00" fill="#000000">1/1/cost=0</text>
</g>
<!-- LR_12 -->
<g id="node22" class="node">
<title>LR_12</title>
<ellipse fill="none" stroke="#000000" cx="362.3852" cy="-597.0969" rx="35.194" ry="35.194"/>
<text text-anchor="middle" x="362.3852" y="-593.3969" font-family="Times,serif" font-size="14.00" fill="#000000">LR_12</text>
</g>
<!-- LR_19&#45;&gt;LR_12 -->
<g id="edge19" class="edge">
<title>LR_19&#45;&gt;LR_12</title>
<path fill="none" stroke="#000000" d="M233.4248,-558.6144C255.6278,-556.9542 284.6519,-556.9447 309.2884,-564.0969 314.6954,-565.6666 320.0913,-567.9552 325.2586,-570.6068"/>
<polygon fill="#000000" stroke="#000000" points="323.8377,-573.8239 334.266,-575.6951 327.2806,-567.7292 323.8377,-573.8239"/>
<text text-anchor="middle" x="280.2884" y="-567.8969" font-family="Times,serif" font-size="14.00" fill="#000000">0/1/cost=1</text>
</g>
<!-- LR_12&#45;&gt;LR_1 -->
<g id="edge33" class="edge">
<title>LR_12&#45;&gt;LR_1</title>
<path fill="none" stroke="#000000" d="M387.3117,-622.6924C411.9067,-649.0688 449.2445,-692.2677 473.4821,-735.0969 491.3693,-766.7045 505.1857,-805.5453 514.1521,-834.7668"/>
<polygon fill="#000000" stroke="#000000" points="510.8975,-836.0991 517.1201,-844.674 517.603,-834.0902 510.8975,-836.0991"/>
<text text-anchor="middle" x="444.4821" y="-738.8969" font-family="Times,serif" font-size="14.00" fill="#000000">1/2/cost=0</text>
</g>
<!-- LR_20&#45;&gt;LR_14 -->
<g id="edge23" class="edge">
<title>LR_20&#45;&gt;LR_14</title>
<path fill="none" stroke="#000000" d="M233.4903,-1092.3065C258.3802,-1091.123 290.5082,-1085.1145 309.2884,-1064.0969 330.4821,-1040.3782 314.9105,-951.3978 327.2884,-922.0969 328.6608,-918.848 330.3439,-915.6406 332.2228,-912.5276"/>
<polygon fill="#000000" stroke="#000000" points="335.2517,-914.296 337.941,-904.0481 329.448,-910.3822 335.2517,-914.296"/>
<text text-anchor="middle" x="280.2884" y="-1094.8969" font-family="Times,serif" font-size="14.00" fill="#000000">1/1/cost=0</text>
</g>
<!-- LR_20&#45;&gt;LR_9 -->
<g id="edge22" class="edge">
<title>LR_20&#45;&gt;LR_9</title>
<path fill="none" stroke="#000000" d="M223.4029,-1066.4696C231.8392,-1059.0118 241.5775,-1051.191 251.2884,-1045.0969 275.0647,-1030.1758 292.7474,-1042.7761 309.2884,-1020.0969 333.7585,-986.546 310.7989,-872.2091 327.2884,-834.0969 328.8933,-830.3873 330.9748,-826.7774 333.323,-823.3414"/>
<polygon fill="#000000" stroke="#000000" points="336.263,-825.26 339.59,-815.2011 330.7163,-820.9898 336.263,-825.26"/>
<text text-anchor="middle" x="280.2884" y="-1048.8969" font-family="Times,serif" font-size="14.00" fill="#000000">0/1/cost=1</text>
</g>
<!-- LR_21&#45;&gt;LR_2 -->
<g id="edge25" class="edge">
<title>LR_21&#45;&gt;LR_2</title>
<path fill="none" stroke="#000000" d="M231.6191,-398.4452C257.424,-409.0789 291.6125,-427.6517 309.2884,-456.0969 331.0892,-491.1803 316.2738,-601.2873 327.2884,-641.0969 330.8786,-654.0729 336.6144,-667.5737 342.4175,-679.4357"/>
<polygon fill="#000000" stroke="#000000" points="339.3994,-681.2228 347.0461,-688.5562 345.6416,-678.0549 339.3994,-681.2228"/>
<text text-anchor="middle" x="280.2884" y="-459.8969" font-family="Times,serif" font-size="14.00" fill="#000000">0/1/cost=1</text>
</g>
<!-- LR_21&#45;&gt;LR_13 -->
<g id="edge26" class="edge">
<title>LR_21&#45;&gt;LR_13</title>
<path fill="none" stroke="#000000" d="M233.3056,-383.6768C256.2686,-380.1819 286.1787,-373.1584 309.2884,-359.0969 319.2143,-353.0572 328.3158,-344.5709 336.0741,-335.8776"/>
<polygon fill="#000000" stroke="#000000" points="338.7475,-338.1366 342.5331,-328.2411 333.4029,-333.616 338.7475,-338.1366"/>
<text text-anchor="middle" x="280.2884" y="-384.8969" font-family="Times,serif" font-size="14.00" fill="#000000">1/1/cost=0</text>
</g>
<!-- LR_23&#45;&gt;LR_8 -->
<g id="edge29" class="edge">
<title>LR_23&#45;&gt;LR_8</title>
<path fill="none" stroke="#000000" d="M232.4074,-202.9902C256.9203,-199.3657 289.051,-199.4188 309.2884,-218.0969 329.9114,-237.131 321.6731,-315.6001 327.2884,-343.0969 333.7178,-374.5808 343.1748,-409.7201 350.6525,-435.8229"/>
<polygon fill="#000000" stroke="#000000" points="347.3719,-437.0776 353.514,-445.7104 354.096,-435.1316 347.3719,-437.0776"/>
<text text-anchor="middle" x="280.2884" y="-221.8969" font-family="Times,serif" font-size="14.00" fill="#000000">1/1/cost=0</text>
</g>
<!-- LR_23&#45;&gt;LR_12 -->
<g id="edge28" class="edge">
<title>LR_23&#45;&gt;LR_12</title>
<path fill="none" stroke="#000000" d="M229.9194,-226.6635C259.332,-241.7877 299.9194,-264.6683 309.2884,-280.0969 336.4735,-324.8644 314.8166,-464.2283 327.2884,-515.0969 330.6675,-528.8795 336.1248,-543.3023 341.7394,-556.1408"/>
<polygon fill="#000000" stroke="#000000" points="338.7162,-557.9491 346.0318,-565.6129 345.0921,-555.0598 338.7162,-557.9491"/>
<text text-anchor="middle" x="280.2884" y="-283.8969" font-family="Times,serif" font-size="14.00" fill="#000000">0/1/cost=1</text>
</g>
<!-- LR_25&#45;&gt;LR_9 -->
<g id="edge31" class="edge">
<title>LR_25&#45;&gt;LR_9</title>
<path fill="none" stroke="#000000" d="M233.1007,-655.9266C257.6332,-661.0964 289.4865,-671.668 309.2884,-693.0969 328.7618,-714.1704 313.3395,-730.0223 327.2884,-755.0969 329.1233,-758.3953 331.2837,-761.6478 333.6162,-764.7827"/>
<polygon fill="#000000" stroke="#000000" points="331.0683,-767.1975 340.087,-772.7575 336.504,-762.7869 331.0683,-767.1975"/>
<text text-anchor="middle" x="280.2884" y="-696.8969" font-family="Times,serif" font-size="14.00" fill="#000000">0/1/cost=0</text>
</g>
<!-- LR_25&#45;&gt;LR_12 -->
<g id="edge32" class="edge">
<title>LR_25&#45;&gt;LR_12</title>
<path fill="none" stroke="#000000" d="M232.4068,-641.2346C254.466,-634.7265 283.7059,-625.8198 309.2884,-617.0969 312.805,-615.8978 316.4381,-614.6179 320.0769,-613.307"/>
<polygon fill="#000000" stroke="#000000" points="321.4621,-616.527 329.6464,-609.7988 319.0527,-609.9547 321.4621,-616.527"/>
<text text-anchor="middle" x="280.2884" y="-639.8969" font-family="Times,serif" font-size="14.00" fill="#000000">1/1/cost=1</text>
</g>
<!-- LR_24&#45;&gt;LR_11 -->
<g id="edge35" class="edge">
<title>LR_24&#45;&gt;LR_11</title>
<path fill="none" stroke="#000000" d="M233.0646,-30.8546C256.2076,-29.733 286.4167,-31.6516 309.2884,-45.0969 323.6531,-53.5414 334.9854,-67.5897 343.4271,-81.4554"/>
<polygon fill="#000000" stroke="#000000" points="340.5737,-83.518 348.5599,-90.4801 346.6584,-80.0573 340.5737,-83.518"/>
<text text-anchor="middle" x="280.2884" y="-48.8969" font-family="Times,serif" font-size="14.00" fill="#000000">1/1/cost=1</text>
</g>
<!-- LR_24&#45;&gt;LR_13 -->
<g id="edge34" class="edge">
<title>LR_24&#45;&gt;LR_13</title>
<path fill="none" stroke="#000000" d="M229.5826,-51.2207C258.511,-66.6567 298.5364,-89.6689 309.2884,-104.0969 310.4472,-105.652 335.3528,-198.15 350.6369,-255.1768"/>
<polygon fill="#000000" stroke="#000000" points="347.3101,-256.2841 353.2787,-265.0378 354.0716,-254.4726 347.3101,-256.2841"/>
<text text-anchor="middle" x="280.2884" y="-107.8969" font-family="Times,serif" font-size="14.00" fill="#000000">0/1/cost=0</text>
</g>
<!-- LR_22&#45;&gt;LR_9 -->
<g id="edge37" class="edge">
<title>LR_22&#45;&gt;LR_9</title>
<path fill="none" stroke="#000000" d="M232.8287,-821.4298C254.8007,-817.6947 283.7912,-812.5078 309.2884,-807.0969 313.6894,-806.1629 318.2813,-805.129 322.8424,-804.0643"/>
<polygon fill="#000000" stroke="#000000" points="323.7793,-807.4391 332.6922,-801.7109 322.1526,-800.6307 323.7793,-807.4391"/>
<text text-anchor="middle" x="280.2884" y="-822.8969" font-family="Times,serif" font-size="14.00" fill="#000000">0/1/cost=0</text>
</g>
<!-- LR_22&#45;&gt;LR_2 -->
<g id="edge38" class="edge">
<title>LR_22&#45;&gt;LR_2</title>
<path fill="none" stroke="#000000" d="M225.2152,-804.7015C233.2665,-798.7474 242.3377,-792.7004 251.2884,-788.0969 275.4105,-775.6903 286.2371,-783.3952 309.2884,-769.0969 315.1773,-765.4441 325.2194,-755.6434 334.9958,-745.3773"/>
<polygon fill="#000000" stroke="#000000" points="337.7187,-747.5903 342.0044,-737.901 332.6117,-742.8029 337.7187,-747.5903"/>
<text text-anchor="middle" x="280.2884" y="-791.8969" font-family="Times,serif" font-size="14.00" fill="#000000">1/1/cost=1</text>
</g>
<!-- LR_27&#45;&gt;LR_2 -->
<g id="edge54" class="edge">
<title>LR_27&#45;&gt;LR_2</title>
<path fill="none" stroke="#000000" d="M231.2771,-311.0653C263.795,-322.8641 308.6642,-339.256 309.2884,-340.0969 329.2564,-367.0006 318.9572,-608.645 327.2884,-641.0969 330.6362,-654.1376 336.3089,-667.6551 342.1288,-679.5127"/>
<polygon fill="#000000" stroke="#000000" points="339.1186,-681.3139 346.7861,-688.6256 345.3518,-678.1283 339.1186,-681.3139"/>
<text text-anchor="middle" x="280.2884" y="-343.8969" font-family="Times,serif" font-size="14.00" fill="#000000">1/1/cost=1</text>
</g>
<!-- LR_27&#45;&gt;LR_13 -->
<g id="edge53" class="edge">
<title>LR_27&#45;&gt;LR_13</title>
<path fill="none" stroke="#000000" d="M233.4151,-299.0969C257.8721,-299.0969 290.6754,-299.0969 317.0783,-299.0969"/>
<polygon fill="#000000" stroke="#000000" points="317.2198,-302.597 327.2198,-299.0969 317.2198,-295.597 317.2198,-302.597"/>
<text text-anchor="middle" x="280.2884" y="-302.8969" font-family="Times,serif" font-size="14.00" fill="#000000">0/1/cost=0</text>
</g>
</g>
</svg>
