<?xml version="1.0" encoding="UTF-8" standalone="no"?>
<!DOCTYPE svg PUBLIC "-//W3C//DTD SVG 1.1//EN"
 "http://www.w3.org/Graphics/SVG/1.1/DTD/svg11.dtd">
<!-- Generated by graphviz version 2.40.1 (20161225.0304)
 -->
<!-- Title: finite_state_machine Pages: 1 -->
<svg width="576pt" height="197pt"
 viewBox="0.00 0.00 576.00 196.86" xmlns="http://www.w3.org/2000/svg" xmlns:xlink="http://www.w3.org/1999/xlink">
<g id="graph0" class="graph" transform="scale(.9838 .9838) rotate(0) translate(4 196.0946)">
<title>finite_state_machine</title>
<polygon fill="#ffffff" stroke="transparent" points="-4,4 -4,-196.0946 581.4729,-196.0946 581.4729,4 -4,4"/>
<!-- LR_0 -->
<g id="node1" class="node">
<title>LR_0</title>
<ellipse fill="none" stroke="#000000" cx="34.5473" cy="-94.5473" rx="30.5892" ry="30.5892"/>
<ellipse fill="none" stroke="#000000" cx="34.5473" cy="-94.5473" rx="34.5946" ry="34.5946"/>
<text text-anchor="middle" x="34.5473" y="-90.8473" font-family="Times,serif" font-size="14.00" fill="#000000">LR_0</text>
</g>
<!-- LR_2 -->
<g id="node3" class="node">
<title>LR_2</title>
<ellipse fill="none" stroke="#000000" cx="288.7364" cy="-30.5473" rx="30.5947" ry="30.5947"/>
<text text-anchor="middle" x="288.7364" y="-26.8473" font-family="Times,serif" font-size="14.00" fill="#000000">LR_2</text>
</g>
<!-- LR_0&#45;&gt;LR_2 -->
<g id="edge3" class="edge">
<title>LR_0&#45;&gt;LR_2</title>
<path fill="none" stroke="#000000" d="M63.2813,-74.5485C82.851,-62.0763 109.8714,-47.0209 136.0946,-39.5473 173.023,-29.0227 216.9526,-27.5182 248.1818,-28.2006"/>
<polygon fill="#000000" stroke="#000000" points="248.1558,-31.7014 258.2572,-28.506 248.3679,-24.7046 248.1558,-31.7014"/>
<text text-anchor="middle" x="166.6419" y="-43.3473" font-family="Times,serif" font-size="14.00" fill="#000000">8/8</text>
</g>
<!-- LR_1 -->
<g id="node5" class="node">
<title>LR_1</title>
<ellipse fill="none" stroke="#000000" cx="288.7364" cy="-161.5473" rx="30.5947" ry="30.5947"/>
<text text-anchor="middle" x="288.7364" y="-157.8473" font-family="Times,serif" font-size="14.00" fill="#000000">LR_1</text>
</g>
<!-- LR_0&#45;&gt;LR_1 -->
<g id="edge4" class="edge">
<title>LR_0&#45;&gt;LR_1</title>
<path fill="none" stroke="#000000" d="M66.45,-109.0205C86.1753,-117.487 112.2062,-127.8032 136.0946,-134.5473 173.4412,-145.0909 217.1454,-152.3232 248.1954,-156.6292"/>
<polygon fill="#000000" stroke="#000000" points="247.8353,-160.1122 258.2129,-157.9779 248.7694,-153.1748 247.8353,-160.1122"/>
<text text-anchor="middle" x="166.6419" y="-151.3473" font-family="Times,serif" font-size="14.00" fill="#000000">7/7</text>
</g>
<!-- LR_3 -->
<g id="node6" class="node">
<title>LR_3</title>
<ellipse fill="none" stroke="#000000" cx="166.6419" cy="-94.5473" rx="30.5947" ry="30.5947"/>
<text text-anchor="middle" x="166.6419" y="-90.8473" font-family="Times,serif" font-size="14.00" fill="#000000">LR_3</text>
</g>
<!-- LR_0&#45;&gt;LR_3 -->
<g id="edge5" class="edge">
<title>LR_0&#45;&gt;LR_3</title>
<path fill="none" stroke="#000000" d="M69.2536,-94.5473C86.5064,-94.5473 107.4734,-94.5473 125.5274,-94.5473"/>
<polygon fill="#000000" stroke="#000000" points="125.7706,-98.0474 135.7706,-94.5473 125.7705,-91.0474 125.7706,-98.0474"/>
<text text-anchor="middle" x="102.5946" y="-98.3473" font-family="Times,serif" font-size="14.00" fill="#000000">10/10</text>
</g>
<!-- LR_5 -->
<g id="node2" class="node">
<title>LR_5</title>
<ellipse fill="none" stroke="#000000" cx="542.9256" cy="-129.5473" rx="30.5892" ry="30.5892"/>
<ellipse fill="none" stroke="#000000" cx="542.9256" cy="-129.5473" rx="34.5946" ry="34.5946"/>
<text text-anchor="middle" x="542.9256" y="-125.8473" font-family="Times,serif" font-size="14.00" fill="#000000">LR_5</text>
</g>
<!-- LR_4 -->
<g id="node4" class="node">
<title>LR_4</title>
<ellipse fill="none" stroke="#000000" cx="410.831" cy="-95.5473" rx="30.5947" ry="30.5947"/>
<text text-anchor="middle" x="410.831" y="-91.8473" font-family="Times,serif" font-size="14.00" fill="#000000">LR_4</text>
</g>
<!-- LR_2&#45;&gt;LR_4 -->
<g id="edge1" class="edge">
<title>LR_2&#45;&gt;LR_4</title>
<path fill="none" stroke="#000000" d="M316.0843,-44.4252C329.9743,-51.5376 347.0845,-60.3967 362.2837,-68.5473 366.5227,-70.8205 370.9527,-73.2327 375.3383,-75.6436"/>
<polygon fill="#000000" stroke="#000000" points="373.7578,-78.7691 384.2027,-80.5453 377.1452,-72.6432 373.7578,-78.7691"/>
<text text-anchor="middle" x="349.7837" y="-72.3473" font-family="Times,serif" font-size="14.00" fill="#000000">9/12</text>
</g>
<!-- LR_4&#45;&gt;LR_5 -->
<g id="edge2" class="edge">
<title>LR_4&#45;&gt;LR_5</title>
<path fill="none" stroke="#000000" d="M440.4756,-103.1776C457.8354,-107.6458 480.0744,-113.3699 499.3939,-118.3426"/>
<polygon fill="#000000" stroke="#000000" points="498.6324,-121.7606 509.1893,-120.8638 500.3774,-114.9816 498.6324,-121.7606"/>
<text text-anchor="middle" x="474.8783" y="-119.3473" font-family="Times,serif" font-size="14.00" fill="#000000">14/14</text>
</g>
<!-- LR_1&#45;&gt;LR_5 -->
<g id="edge10" class="edge">
<title>LR_1&#45;&gt;LR_5</title>
<path fill="none" stroke="#000000" d="M319.1451,-157.7191C363.6506,-152.1163 446.812,-141.6471 498.2668,-135.1694"/>
<polygon fill="#000000" stroke="#000000" points="498.9426,-138.6121 508.4271,-133.8903 498.0682,-131.6669 498.9426,-138.6121"/>
<text text-anchor="middle" x="410.831" y="-153.3473" font-family="Times,serif" font-size="14.00" fill="#000000">11/21</text>
</g>
<!-- LR_1&#45;&gt;LR_4 -->
<g id="edge9" class="edge">
<title>LR_1&#45;&gt;LR_4</title>
<path fill="none" stroke="#000000" d="M315.3201,-145.9195C322.419,-141.8274 330.1114,-137.4658 337.2837,-133.5473 349.2263,-127.0226 362.3962,-120.1259 374.2516,-114.025"/>
<polygon fill="#000000" stroke="#000000" points="376.1236,-116.9986 383.429,-109.3251 372.9329,-110.7681 376.1236,-116.9986"/>
<text text-anchor="middle" x="349.7837" y="-137.3473" font-family="Times,serif" font-size="14.00" fill="#000000">0/1</text>
</g>
<!-- LR_3&#45;&gt;LR_2 -->
<g id="edge7" class="edge">
<title>LR_3&#45;&gt;LR_2</title>
<path fill="none" stroke="#000000" d="M193.5668,-80.0361C200.5939,-76.274 208.1661,-72.242 215.1892,-68.5473 227.2329,-62.2113 240.4291,-55.3637 252.2775,-49.2498"/>
<polygon fill="#000000" stroke="#000000" points="254.1564,-52.219 261.443,-44.5276 250.9504,-45.9963 254.1564,-52.219"/>
<text text-anchor="middle" x="227.6892" y="-72.3473" font-family="Times,serif" font-size="14.00" fill="#000000">1/2</text>
</g>
<!-- LR_3&#45;&gt;LR_4 -->
<g id="edge6" class="edge">
<title>LR_3&#45;&gt;LR_4</title>
<path fill="none" stroke="#000000" d="M197.5686,-94.6739C241.3286,-94.8531 321.3897,-95.181 369.9917,-95.38"/>
<polygon fill="#000000" stroke="#000000" points="370.1411,-98.8806 380.1554,-95.4217 370.1699,-91.8806 370.1411,-98.8806"/>
<text text-anchor="middle" x="288.7364" y="-98.3473" font-family="Times,serif" font-size="14.00" fill="#000000">5/5</text>
</g>
<!-- LR_3&#45;&gt;LR_1 -->
<g id="edge8" class="edge">
<title>LR_3&#45;&gt;LR_1</title>
<path fill="none" stroke="#000000" d="M194.0979,-108.2272C208.0155,-115.2891 225.1178,-124.1627 240.1892,-132.5473 244.633,-135.0195 249.266,-137.6785 253.8297,-140.3475"/>
<polygon fill="#000000" stroke="#000000" points="252.0633,-143.3691 262.4526,-145.4459 255.626,-137.3435 252.0633,-143.3691"/>
<text text-anchor="middle" x="227.6892" y="-136.3473" font-family="Times,serif" font-size="14.00" fill="#000000">4/11</text>
</g>
</g>
</svg>
