<?xml version="1.0" encoding="UTF-8" standalone="no"?>
<!DOCTYPE svg PUBLIC "-//W3C//DTD SVG 1.1//EN"
 "http://www.w3.org/Graphics/SVG/1.1/DTD/svg11.dtd">
<!-- Generated by graphviz version 2.40.1 (20161225.0304)
 -->
<!-- Title: finite_state_machine Pages: 1 -->
<svg width="576pt" height="142pt"
 viewBox="0.00 0.00 576.00 141.67" xmlns="http://www.w3.org/2000/svg" xmlns:xlink="http://www.w3.org/1999/xlink">
<g id="graph0" class="graph" transform="scale(.7654 .7654) rotate(0) translate(4 181.0946)">
<title>finite_state_machine</title>
<polygon fill="#ffffff" stroke="transparent" points="-4,4 -4,-181.0946 748.5675,-181.0946 748.5675,4 -4,4"/>
<!-- LR_0 -->
<g id="node1" class="node">
<title>LR_0</title>
<ellipse fill="none" stroke="#000000" cx="34.5473" cy="-34.5473" rx="30.5892" ry="30.5892"/>
<ellipse fill="none" stroke="#000000" cx="34.5473" cy="-34.5473" rx="34.5946" ry="34.5946"/>
<text text-anchor="middle" x="34.5473" y="-30.8473" font-family="Times,serif" font-size="14.00" fill="#000000">LR_0</text>
</g>
<!-- LR_1 -->
<g id="node3" class="node">
<title>LR_1</title>
<ellipse fill="none" stroke="#000000" cx="177.6419" cy="-77.5473" rx="30.5947" ry="30.5947"/>
<text text-anchor="middle" x="177.6419" y="-73.8473" font-family="Times,serif" font-size="14.00" fill="#000000">LR_1</text>
</g>
<!-- LR_0&#45;&gt;LR_1 -->
<g id="edge8" class="edge">
<title>LR_0&#45;&gt;LR_1</title>
<path fill="none" stroke="#000000" d="M67.7357,-44.5204C88.7851,-50.8458 116.1234,-59.061 138.2681,-65.7155"/>
<polygon fill="#000000" stroke="#000000" points="137.4518,-69.1247 148.036,-68.6507 139.4663,-62.4208 137.4518,-69.1247"/>
<text text-anchor="middle" x="108.0946" y="-66.3473" font-family="Times,serif" font-size="14.00" fill="#000000">12/16/0</text>
</g>
<!-- LR_2 -->
<g id="node5" class="node">
<title>LR_2</title>
<ellipse fill="none" stroke="#000000" cx="441.831" cy="-61.5473" rx="30.5947" ry="30.5947"/>
<text text-anchor="middle" x="441.831" y="-57.8473" font-family="Times,serif" font-size="14.00" fill="#000000">LR_2</text>
</g>
<!-- LR_0&#45;&gt;LR_2 -->
<g id="edge9" class="edge">
<title>LR_0&#45;&gt;LR_2</title>
<path fill="none" stroke="#000000" d="M69.1734,-34.2798C104.2442,-34.2124 160.0344,-34.6633 208.1892,-37.5473 276.1144,-41.6153 354.7654,-50.5782 401.2947,-56.3256"/>
<polygon fill="#000000" stroke="#000000" points="400.9258,-59.8066 411.282,-57.5709 401.792,-52.8604 400.9258,-59.8066"/>
<text text-anchor="middle" x="247.1892" y="-46.3473" font-family="Times,serif" font-size="14.00" fill="#000000">7/13/0</text>
</g>
<!-- LR_5 -->
<g id="node2" class="node">
<title>LR_5</title>
<ellipse fill="none" stroke="#000000" cx="710.0202" cy="-142.5473" rx="30.5892" ry="30.5892"/>
<ellipse fill="none" stroke="#000000" cx="710.0202" cy="-142.5473" rx="34.5946" ry="34.5946"/>
<text text-anchor="middle" x="710.0202" y="-138.8473" font-family="Times,serif" font-size="14.00" fill="#000000">LR_5</text>
</g>
<!-- LR_3 -->
<g id="node4" class="node">
<title>LR_3</title>
<ellipse fill="none" stroke="#000000" cx="316.7364" cy="-128.5473" rx="30.5947" ry="30.5947"/>
<text text-anchor="middle" x="316.7364" y="-124.8473" font-family="Times,serif" font-size="14.00" fill="#000000">LR_3</text>
</g>
<!-- LR_1&#45;&gt;LR_3 -->
<g id="edge1" class="edge">
<title>LR_1&#45;&gt;LR_3</title>
<path fill="none" stroke="#000000" d="M206.4624,-88.1145C227.2572,-95.7391 255.5524,-106.1137 278.2742,-114.4448"/>
<polygon fill="#000000" stroke="#000000" points="277.3592,-117.8371 287.9529,-117.9936 279.769,-111.265 277.3592,-117.8371"/>
<text text-anchor="middle" x="247.1892" y="-114.3473" font-family="Times,serif" font-size="14.00" fill="#000000">12/12/0</text>
</g>
<!-- LR_3&#45;&gt;LR_5 -->
<g id="edge3" class="edge">
<title>LR_3&#45;&gt;LR_5</title>
<path fill="none" stroke="#000000" d="M346.673,-135.3371C352.8045,-136.5518 359.2332,-137.6988 365.2837,-138.5473 473.816,-153.7664 501.9818,-157.2988 611.4729,-152.5473 629.1152,-151.7817 648.4603,-150.0213 665.3034,-148.1873"/>
<polygon fill="#000000" stroke="#000000" points="665.8855,-151.6439 675.4298,-147.0442 665.1002,-144.6881 665.8855,-151.6439"/>
<text text-anchor="middle" x="511.3783" y="-157.3473" font-family="Times,serif" font-size="14.00" fill="#000000">15/20/0</text>
</g>
<!-- LR_3&#45;&gt;LR_2 -->
<g id="edge2" class="edge">
<title>LR_3&#45;&gt;LR_2</title>
<path fill="none" stroke="#000000" d="M342.9769,-112.3671C350.1461,-108.0856 357.9589,-103.5454 365.2837,-99.5473 377.9448,-92.6367 392.029,-85.4945 404.6295,-79.2933"/>
<polygon fill="#000000" stroke="#000000" points="406.4769,-82.2863 413.9278,-74.7541 403.406,-75.9958 406.4769,-82.2863"/>
<text text-anchor="middle" x="379.2837" y="-103.3473" font-family="Times,serif" font-size="14.00" fill="#000000">4/9/0</text>
</g>
<!-- LR_2&#45;&gt;LR_1 -->
<g id="edge6" class="edge">
<title>LR_2&#45;&gt;LR_1</title>
<path fill="none" stroke="#000000" d="M411.1347,-63.4063C363.4288,-66.2955 271.4634,-71.8652 218.2971,-75.0851"/>
<polygon fill="#000000" stroke="#000000" points="217.9759,-71.598 208.2058,-75.6963 218.3991,-78.5852 217.9759,-71.598"/>
<text text-anchor="middle" x="316.7364" y="-75.3473" font-family="Times,serif" font-size="14.00" fill="#000000">0/4/0</text>
</g>
<!-- LR_4 -->
<g id="node6" class="node">
<title>LR_4</title>
<ellipse fill="none" stroke="#000000" cx="580.9256" cy="-112.5473" rx="30.5947" ry="30.5947"/>
<text text-anchor="middle" x="580.9256" y="-108.8473" font-family="Times,serif" font-size="14.00" fill="#000000">LR_4</text>
</g>
<!-- LR_2&#45;&gt;LR_4 -->
<g id="edge7" class="edge">
<title>LR_2&#45;&gt;LR_4</title>
<path fill="none" stroke="#000000" d="M470.6515,-72.1145C491.4463,-79.7391 519.7416,-90.1137 542.4633,-98.4448"/>
<polygon fill="#000000" stroke="#000000" points="541.5484,-101.8371 552.142,-101.9936 543.9581,-95.265 541.5484,-101.8371"/>
<text text-anchor="middle" x="511.3783" y="-98.3473" font-family="Times,serif" font-size="14.00" fill="#000000">11/14/0</text>
</g>
<!-- LR_4&#45;&gt;LR_5 -->
<g id="edge4" class="edge">
<title>LR_4&#45;&gt;LR_5</title>
<path fill="none" stroke="#000000" d="M610.867,-119.5053C627.3326,-123.3317 648.0638,-128.1494 666.3076,-132.389"/>
<polygon fill="#000000" stroke="#000000" points="665.6116,-135.8205 676.1443,-134.6749 667.1961,-129.0022 665.6116,-135.8205"/>
<text text-anchor="middle" x="643.4729" y="-133.3473" font-family="Times,serif" font-size="14.00" fill="#000000">4/4/0</text>
</g>
<!-- LR_4&#45;&gt;LR_3 -->
<g id="edge5" class="edge">
<title>LR_4&#45;&gt;LR_3</title>
<path fill="none" stroke="#000000" d="M550.2293,-114.4063C502.5233,-117.2955 410.558,-122.8652 357.3917,-126.0851"/>
<polygon fill="#000000" stroke="#000000" points="357.0705,-122.598 347.3004,-126.6963 357.4937,-129.5852 357.0705,-122.598"/>
<text text-anchor="middle" x="441.831" y="-126.3473" font-family="Times,serif" font-size="14.00" fill="#000000">7/7/0</text>
</g>
</g>
</svg>
