<?xml version="1.0" encoding="UTF-8" standalone="no"?>
<!DOCTYPE svg PUBLIC "-//W3C//DTD SVG 1.1//EN"
 "http://www.w3.org/Graphics/SVG/1.1/DTD/svg11.dtd">
<!-- Generated by graphviz version 2.40.1 (20161225.0304)
 -->
<!-- Title: finite_state_machine Pages: 1 -->
<svg width="434pt" height="360pt"
 viewBox="0.00 0.00 434.25 360.00" xmlns="http://www.w3.org/2000/svg" xmlns:xlink="http://www.w3.org/1999/xlink">
<g id="graph0" class="graph" transform="scale(.9967 .9967) rotate(0) translate(4 357.1961)">
<title>finite_state_machine</title>
<polygon fill="#ffffff" stroke="transparent" points="-4,4 -4,-357.1961 431.6909,-357.1961 431.6909,4 -4,4"/>
<!-- S -->
<g id="node1" class="node">
<title>S</title>
<ellipse fill="#c7cde2" stroke="#bec4da" cx="22" cy="-170.748" rx="18" ry="18"/>
<ellipse fill="none" stroke="#bec4da" cx="22" cy="-170.748" rx="22" ry="22"/>
<text text-anchor="middle" x="22" y="-167.048" font-family="Times,serif" font-size="14.00" fill="#000000">S</text>
</g>
<!-- EL -->
<g id="node6" class="node">
<title>EL</title>
<ellipse fill="#dde0ea" stroke="#737683" cx="145.748" cy="-331.748" rx="21.3963" ry="21.3963"/>
<text text-anchor="middle" x="145.748" y="-328.048" font-family="Times,serif" font-size="14.00" fill="#000000">EL</text>
</g>
<!-- S&#45;&gt;EL -->
<g id="edge9" class="edge">
<title>S&#45;&gt;EL</title>
<path fill="none" stroke="#000000" d="M27.7671,-192.0972C33.936,-212.238 45.1668,-242.5674 62,-264.748 77.5743,-285.2698 100.7769,-303.1798 118.8129,-315.3068"/>
<polygon fill="#000000" stroke="#000000" points="116.9093,-318.2439 127.1958,-320.7816 120.737,-312.3831 116.9093,-318.2439"/>
<text text-anchor="middle" x="83.5" y="-307.548" font-family="Times,serif" font-size="14.00" fill="#000000">[1/1](0)</text>
</g>
<!-- RF -->
<g id="node7" class="node">
<title>RF</title>
<ellipse fill="#dde0ea" stroke="#737683" cx="145.748" cy="-270.748" rx="21.3963" ry="21.3963"/>
<text text-anchor="middle" x="145.748" y="-267.048" font-family="Times,serif" font-size="14.00" fill="#000000">RF</text>
</g>
<!-- S&#45;&gt;RF -->
<g id="edge10" class="edge">
<title>S&#45;&gt;RF</title>
<path fill="none" stroke="#000000" d="M35.9262,-187.9613C43.2391,-196.4883 52.6147,-206.6617 62,-214.748 79.4412,-229.7752 101.0869,-244.1538 118.0028,-254.5782"/>
<polygon fill="#000000" stroke="#000000" points="116.4906,-257.7542 126.8572,-259.9417 120.1174,-251.767 116.4906,-257.7542"/>
<text text-anchor="middle" x="83.5" y="-249.548" font-family="Times,serif" font-size="14.00" fill="#000000">[1/1](0)</text>
</g>
<!-- DL -->
<g id="node8" class="node">
<title>DL</title>
<ellipse fill="#dde0ea" stroke="#737683" cx="145.748" cy="-208.748" rx="22.9987" ry="22.9987"/>
<text text-anchor="middle" x="145.748" y="-205.048" font-family="Times,serif" font-size="14.00" fill="#000000">DL</text>
</g>
<!-- S&#45;&gt;DL -->
<g id="edge11" class="edge">
<title>S&#45;&gt;DL</title>
<path fill="none" stroke="#000000" d="M43.273,-177.2804C62.809,-183.2794 92.0133,-192.2474 114.253,-199.0766"/>
<polygon fill="#000000" stroke="#000000" points="113.3345,-202.4558 123.9214,-202.0456 115.3894,-195.7642 113.3345,-202.4558"/>
<text text-anchor="middle" x="83.5" y="-199.548" font-family="Times,serif" font-size="14.00" fill="#000000">[1/1](0)</text>
</g>
<!-- ER -->
<g id="node9" class="node">
<title>ER</title>
<ellipse fill="#dde0ea" stroke="#737683" cx="145.748" cy="-145.748" rx="22.1965" ry="22.1965"/>
<text text-anchor="middle" x="145.748" y="-142.048" font-family="Times,serif" font-size="14.00" fill="#000000">ER</text>
</g>
<!-- S&#45;&gt;ER -->
<g id="edge12" class="edge">
<title>S&#45;&gt;ER</title>
<path fill="none" stroke="#000000" d="M43.8388,-166.336C63.2463,-162.4153 91.8629,-156.634 113.835,-152.1952"/>
<polygon fill="#000000" stroke="#000000" points="114.6024,-155.6109 123.7113,-150.1999 113.2162,-148.7495 114.6024,-155.6109"/>
<text text-anchor="middle" x="83.5" y="-166.548" font-family="Times,serif" font-size="14.00" fill="#000000">[1/1](0)</text>
</g>
<!-- JG -->
<g id="node10" class="node">
<title>JG</title>
<ellipse fill="#dde0ea" stroke="#737683" cx="145.748" cy="-84.748" rx="20.5982" ry="20.5982"/>
<text text-anchor="middle" x="145.748" y="-81.048" font-family="Times,serif" font-size="14.00" fill="#000000">JG</text>
</g>
<!-- S&#45;&gt;JG -->
<g id="edge13" class="edge">
<title>S&#45;&gt;JG</title>
<path fill="none" stroke="#000000" d="M38.205,-155.4393C45.2795,-149.0582 53.8157,-141.7518 62,-135.748 80.067,-122.4944 101.695,-109.3873 118.446,-99.7799"/>
<polygon fill="#000000" stroke="#000000" points="120.2202,-102.7974 127.1967,-94.8237 116.7705,-96.7065 120.2202,-102.7974"/>
<text text-anchor="middle" x="83.5" y="-139.548" font-family="Times,serif" font-size="14.00" fill="#000000">[1/1](0)</text>
</g>
<!-- AB -->
<g id="node11" class="node">
<title>AB</title>
<ellipse fill="#dde0ea" stroke="#737683" cx="145.748" cy="-22.748" rx="22.9987" ry="22.9987"/>
<text text-anchor="middle" x="145.748" y="-19.048" font-family="Times,serif" font-size="14.00" fill="#000000">AB</text>
</g>
<!-- S&#45;&gt;AB -->
<g id="edge14" class="edge">
<title>S&#45;&gt;AB</title>
<path fill="none" stroke="#000000" d="M29.4463,-149.6688C36.2062,-132.4096 47.3537,-107.9575 62,-89.748 77.6022,-70.35 99.7496,-52.9394 117.3504,-40.731"/>
<polygon fill="#000000" stroke="#000000" points="119.7507,-43.3336 126.0813,-34.838 115.8345,-37.5315 119.7507,-43.3336"/>
<text text-anchor="middle" x="83.5" y="-93.548" font-family="Times,serif" font-size="14.00" fill="#000000">[1/1](0)</text>
</g>
<!-- P -->
<g id="node2" class="node">
<title>P</title>
<ellipse fill="#c7cde2" stroke="#bec4da" cx="405.6909" cy="-145.748" rx="18" ry="18"/>
<ellipse fill="none" stroke="#bec4da" cx="405.6909" cy="-145.748" rx="22" ry="22"/>
<text text-anchor="middle" x="405.6909" y="-142.048" font-family="Times,serif" font-size="14.00" fill="#000000">P</text>
</g>
<!-- Inj -->
<g id="node3" class="node">
<title>Inj</title>
<ellipse fill="#dde0ea" stroke="#737683" cx="276.0934" cy="-145.748" rx="20.5982" ry="20.5982"/>
<text text-anchor="middle" x="276.0934" y="-142.048" font-family="Times,serif" font-size="14.00" fill="#000000">Inj</text>
</g>
<!-- Inj&#45;&gt;P -->
<g id="edge1" class="edge">
<title>Inj&#45;&gt;P</title>
<path fill="none" stroke="#000000" d="M296.9155,-145.748C317.6083,-145.748 349.6298,-145.748 373.5799,-145.748"/>
<polygon fill="#000000" stroke="#000000" points="373.6193,-149.2481 383.6193,-145.748 373.6192,-142.2481 373.6193,-149.2481"/>
<text text-anchor="middle" x="344.1909" y="-149.548" font-family="Times,serif" font-size="14.00" fill="#000000">[3/3](0)</text>
</g>
<!-- Auto -->
<g id="node4" class="node">
<title>Auto</title>
<ellipse fill="#dde0ea" stroke="#737683" cx="276.0934" cy="-270.748" rx="28.6953" ry="28.6953"/>
<text text-anchor="middle" x="276.0934" y="-267.048" font-family="Times,serif" font-size="14.00" fill="#000000">Auto</text>
</g>
<!-- Auto&#45;&gt;P -->
<g id="edge2" class="edge">
<title>Auto&#45;&gt;P</title>
<path fill="none" stroke="#000000" d="M296.9155,-250.6646C320.2876,-228.1216 358.1119,-191.6391 382.4348,-168.1791"/>
<polygon fill="#000000" stroke="#000000" points="385.0542,-170.5154 389.822,-161.0539 380.1946,-165.477 385.0542,-170.5154"/>
<text text-anchor="middle" x="344.1909" y="-227.548" font-family="Times,serif" font-size="14.00" fill="#000000">[2/2](0)</text>
</g>
<!-- Secu -->
<g id="node5" class="node">
<title>Secu</title>
<ellipse fill="#dde0ea" stroke="#737683" cx="276.0934" cy="-62.748" rx="27.8951" ry="27.8951"/>
<text text-anchor="middle" x="276.0934" y="-59.048" font-family="Times,serif" font-size="14.00" fill="#000000">Secu</text>
</g>
<!-- Secu&#45;&gt;P -->
<g id="edge3" class="edge">
<title>Secu&#45;&gt;P</title>
<path fill="none" stroke="#000000" d="M299.8636,-77.9715C322.0551,-92.1839 355.1529,-113.3812 378.4118,-128.2772"/>
<polygon fill="#000000" stroke="#000000" points="376.7968,-131.3992 387.1055,-133.8451 380.5721,-125.5045 376.7968,-131.3992"/>
<text text-anchor="middle" x="344.1909" y="-123.548" font-family="Times,serif" font-size="14.00" fill="#000000">[1/1](0)</text>
</g>
<!-- EL&#45;&gt;Auto -->
<g id="edge4" class="edge">
<title>EL&#45;&gt;Auto</title>
<path fill="none" stroke="#000000" d="M165.262,-322.6157C185.1996,-313.2851 216.594,-298.593 240.8873,-287.224"/>
<polygon fill="#000000" stroke="#000000" points="242.5692,-290.3013 250.1428,-282.8925 239.602,-283.9612 242.5692,-290.3013"/>
<text text-anchor="middle" x="207.996" y="-315.548" font-family="Times,serif" font-size="14.00" fill="#000000">[1/1](0)</text>
</g>
<!-- RF&#45;&gt;Auto -->
<g id="edge5" class="edge">
<title>RF&#45;&gt;Auto</title>
<path fill="none" stroke="#000000" d="M167.2719,-270.748C186.2087,-270.748 214.2448,-270.748 237.1169,-270.748"/>
<polygon fill="#000000" stroke="#000000" points="237.2111,-274.2481 247.211,-270.748 237.211,-267.2481 237.2111,-274.2481"/>
<text text-anchor="middle" x="207.996" y="-274.548" font-family="Times,serif" font-size="14.00" fill="#000000">[1/1](0)</text>
</g>
<!-- DL&#45;&gt;Inj -->
<g id="edge6" class="edge">
<title>DL&#45;&gt;Inj</title>
<path fill="none" stroke="#000000" d="M166.4016,-198.7654C188.4553,-188.1062 223.5368,-171.1502 248.0715,-159.2918"/>
<polygon fill="#000000" stroke="#000000" points="249.7489,-162.3686 257.2293,-154.8656 246.7027,-156.0661 249.7489,-162.3686"/>
<text text-anchor="middle" x="207.996" y="-192.548" font-family="Times,serif" font-size="14.00" fill="#000000">[1/1](1)</text>
</g>
<!-- ER&#45;&gt;Inj -->
<g id="edge7" class="edge">
<title>ER&#45;&gt;Inj</title>
<path fill="none" stroke="#000000" d="M167.8593,-145.748C189.0228,-145.748 221.1516,-145.748 244.9111,-145.748"/>
<polygon fill="#000000" stroke="#000000" points="245.1693,-149.2481 255.1693,-145.748 245.1692,-142.2481 245.1693,-149.2481"/>
<text text-anchor="middle" x="207.996" y="-149.548" font-family="Times,serif" font-size="14.00" fill="#000000">[1/1](1)</text>
</g>
<!-- JG&#45;&gt;Inj -->
<g id="edge8" class="edge">
<title>JG&#45;&gt;Inj</title>
<path fill="none" stroke="#000000" d="M164.7013,-93.6179C186.5179,-103.8278 222.5709,-120.7001 247.7319,-132.4751"/>
<polygon fill="#000000" stroke="#000000" points="246.5764,-135.7987 257.1172,-136.8674 249.5435,-129.4586 246.5764,-135.7987"/>
<text text-anchor="middle" x="207.996" y="-126.548" font-family="Times,serif" font-size="14.00" fill="#000000">[1/1](0)</text>
</g>
<!-- AB&#45;&gt;Secu -->
<g id="edge15" class="edge">
<title>AB&#45;&gt;Secu</title>
<path fill="none" stroke="#000000" d="M167.5649,-29.4431C187.1354,-35.4488 216.2518,-44.384 239.4006,-51.4878"/>
<polygon fill="#000000" stroke="#000000" points="238.6484,-54.918 249.2352,-54.5058 240.702,-48.226 238.6484,-54.918"/>
<text text-anchor="middle" x="207.996" y="-51.548" font-family="Times,serif" font-size="14.00" fill="#000000">[1/1](1)</text>
</g>
</g>
</svg>
