<?xml version="1.0" encoding="UTF-8" standalone="no"?>
<!DOCTYPE svg PUBLIC "-//W3C//DTD SVG 1.1//EN"
 "http://www.w3.org/Graphics/SVG/1.1/DTD/svg11.dtd">
<!-- Generated by graphviz version 2.40.1 (20161225.0304)
 -->
<!-- Title: html Pages: 1 -->
<svg width="122pt" height="385pt"
 viewBox="0.00 0.00 122.00 385.00" xmlns="http://www.w3.org/2000/svg" xmlns:xlink="http://www.w3.org/1999/xlink">
<g id="graph0" class="graph" transform="scale(1 1) rotate(0) translate(4 381)">
<title>html</title>
<polygon fill="#ffffff" stroke="transparent" points="-4,4 -4,-381 118,-381 118,4 -4,4"/>
<!-- abc -->
<g id="node1" class="node">
<title>abc</title>
<polygon fill="none" stroke="#000000" points="1,-350.5 1,-375.5 53,-375.5 53,-350.5 1,-350.5"/>
<text text-anchor="start" x="6" y="-359.3" font-family="Times,serif" font-size="14.00" fill="#9ea2a8">Student</text>
<polygon fill="none" stroke="#000000" points="53,-350.5 53,-375.5 113,-375.5 113,-350.5 53,-350.5"/>
<text text-anchor="start" x="63.5" y="-359.3" font-family="Times,serif" font-size="14.00" fill="#9ea2a8">Project</text>
<polygon fill="none" stroke="#000000" points="1,-325.5 1,-350.5 53,-350.5 53,-325.5 1,-325.5"/>
<text text-anchor="start" x="12.5" y="-334.3" font-family="Times,serif" font-size="14.00" fill="#75778a">&quot;RF&quot;</text>
<polygon fill="none" stroke="#000000" points="53,-325.5 53,-350.5 113,-350.5 113,-325.5 53,-325.5"/>
<text text-anchor="start" x="65.5" y="-334.3" font-family="Times,serif" font-size="14.00" fill="#75778a"> &quot;Inj&quot; </text>
<polygon fill="none" stroke="#000000" points="1,-300.5 1,-325.5 53,-325.5 53,-300.5 1,-300.5"/>
<text text-anchor="start" x="13" y="-309.3" font-family="Times,serif" font-size="14.00" fill="#75778a">&quot;JG&quot;</text>
<polygon fill="none" stroke="#000000" points="53,-300.5 53,-325.5 113,-325.5 113,-300.5 53,-300.5"/>
<text text-anchor="start" x="65.5" y="-309.3" font-family="Times,serif" font-size="14.00" fill="#75778a"> &quot;Inj&quot; </text>
<polygon fill="none" stroke="#000000" points="1,-275.5 1,-300.5 53,-300.5 53,-275.5 1,-275.5"/>
<text text-anchor="start" x="11.5" y="-284.3" font-family="Times,serif" font-size="14.00" fill="#75778a">&quot;DL&quot;</text>
<polygon fill="none" stroke="#000000" points="53,-275.5 53,-300.5 113,-300.5 113,-275.5 53,-275.5"/>
<text text-anchor="start" x="58.5" y="-284.3" font-family="Times,serif" font-size="14.00" fill="#75778a"> &quot;Deep&quot; </text>
<polygon fill="none" stroke="#000000" points="1,-250.5 1,-275.5 53,-275.5 53,-250.5 1,-250.5"/>
<text text-anchor="start" x="11.5" y="-259.3" font-family="Times,serif" font-size="14.00" fill="#75778a">&quot;AB&quot;</text>
<polygon fill="none" stroke="#000000" points="53,-250.5 53,-275.5 113,-275.5 113,-250.5 53,-250.5"/>
<text text-anchor="start" x="58" y="-259.3" font-family="Times,serif" font-size="14.00" fill="#75778a"> &quot;SHM&quot; </text>
<polygon fill="none" stroke="#000000" points="1,-225.5 1,-250.5 53,-250.5 53,-225.5 1,-225.5"/>
<text text-anchor="start" x="12" y="-234.3" font-family="Times,serif" font-size="14.00" fill="#75778a">&quot;ER&quot;</text>
<polygon fill="none" stroke="#000000" points="53,-225.5 53,-250.5 113,-250.5 113,-225.5 53,-225.5"/>
<text text-anchor="start" x="60" y="-234.3" font-family="Times,serif" font-size="14.00" fill="#75778a"> &quot;Rico&quot; </text>
<polygon fill="none" stroke="#000000" points="1,-200.5 1,-225.5 53,-225.5 53,-200.5 1,-200.5"/>
<text text-anchor="start" x="11.5" y="-209.3" font-family="Times,serif" font-size="14.00" fill="#75778a">&quot;BB&quot;</text>
<polygon fill="none" stroke="#000000" points="53,-200.5 53,-225.5 113,-225.5 113,-200.5 53,-200.5"/>
<text text-anchor="start" x="63" y="-209.3" font-family="Times,serif" font-size="14.00" fill="#75778a"> &quot;Opt&quot; </text>
<polygon fill="none" stroke="#000000" points="1,-175.5 1,-200.5 53,-200.5 53,-175.5 1,-175.5"/>
<text text-anchor="start" x="12" y="-184.3" font-family="Times,serif" font-size="14.00" fill="#75778a">&quot;TR&quot;</text>
<polygon fill="none" stroke="#000000" points="53,-175.5 53,-200.5 113,-200.5 113,-175.5 53,-175.5"/>
<text text-anchor="start" x="60" y="-184.3" font-family="Times,serif" font-size="14.00" fill="#75778a"> &quot;Prop&quot; </text>
<polygon fill="none" stroke="#000000" points="1,-150.5 1,-175.5 53,-175.5 53,-150.5 1,-150.5"/>
<text text-anchor="start" x="10" y="-159.3" font-family="Times,serif" font-size="14.00" fill="#75778a">&quot;ML&quot;</text>
<polygon fill="none" stroke="#000000" points="53,-150.5 53,-175.5 113,-175.5 113,-150.5 53,-150.5"/>
<text text-anchor="start" x="59.5" y="-159.3" font-family="Times,serif" font-size="14.00" fill="#75778a"> &quot;Auto&quot; </text>
<polygon fill="none" stroke="#000000" points="1,-125.5 1,-150.5 53,-150.5 53,-125.5 1,-125.5"/>
<text text-anchor="start" x="13" y="-134.3" font-family="Times,serif" font-size="14.00" fill="#75778a">&quot;PL&quot;</text>
<polygon fill="none" stroke="#000000" points="53,-125.5 53,-150.5 113,-150.5 113,-125.5 53,-125.5"/>
<text text-anchor="start" x="58.5" y="-134.3" font-family="Times,serif" font-size="14.00" fill="#75778a"> &quot;Deep&quot; </text>
<polygon fill="none" stroke="#000000" points="1,-100.5 1,-125.5 53,-125.5 53,-100.5 1,-100.5"/>
<text text-anchor="start" x="11.5" y="-109.3" font-family="Times,serif" font-size="14.00" fill="#75778a">&quot;AT&quot;</text>
<polygon fill="none" stroke="#000000" points="53,-100.5 53,-125.5 113,-125.5 113,-100.5 53,-100.5"/>
<text text-anchor="start" x="58" y="-109.3" font-family="Times,serif" font-size="14.00" fill="#75778a"> &quot;SHM&quot; </text>
<polygon fill="none" stroke="#000000" points="1,-75.5 1,-100.5 53,-100.5 53,-75.5 1,-75.5"/>
<text text-anchor="start" x="11.5" y="-84.3" font-family="Times,serif" font-size="14.00" fill="#75778a">&quot;EH&quot;</text>
<polygon fill="none" stroke="#000000" points="53,-75.5 53,-100.5 113,-100.5 113,-75.5 53,-75.5"/>
<text text-anchor="start" x="60" y="-84.3" font-family="Times,serif" font-size="14.00" fill="#75778a"> &quot;Rico&quot; </text>
<polygon fill="none" stroke="#000000" points="1,-50.5 1,-75.5 53,-75.5 53,-50.5 1,-50.5"/>
<text text-anchor="start" x="11.5" y="-59.3" font-family="Times,serif" font-size="14.00" fill="#75778a">&quot;BC&quot;</text>
<polygon fill="none" stroke="#000000" points="53,-50.5 53,-75.5 113,-75.5 113,-50.5 53,-50.5"/>
<text text-anchor="start" x="59.5" y="-59.3" font-family="Times,serif" font-size="14.00" fill="#75778a"> &quot;Auto&quot; </text>
<polygon fill="none" stroke="#000000" points="1,-25.5 1,-50.5 53,-50.5 53,-25.5 1,-25.5"/>
<text text-anchor="start" x="12" y="-34.3" font-family="Times,serif" font-size="14.00" fill="#75778a">&quot;PO&quot;</text>
<polygon fill="none" stroke="#000000" points="53,-25.5 53,-50.5 113,-50.5 113,-25.5 53,-25.5"/>
<text text-anchor="start" x="60" y="-34.3" font-family="Times,serif" font-size="14.00" fill="#75778a"> &quot;Prop&quot; </text>
<polygon fill="none" stroke="#000000" points="1,-.5 1,-25.5 53,-25.5 53,-.5 1,-.5"/>
<text text-anchor="start" x="9.5" y="-9.3" font-family="Times,serif" font-size="14.00" fill="#75778a">&quot;KM&quot;</text>
<polygon fill="none" stroke="#000000" points="53,-.5 53,-25.5 113,-25.5 113,-.5 53,-.5"/>
<text text-anchor="start" x="63" y="-9.3" font-family="Times,serif" font-size="14.00" fill="#75778a"> &quot;Opt&quot; </text>
<polygon fill="none" stroke="#000000" points="0,0 0,-377 114,-377 114,0 0,0"/>
</g>
</g>
</svg>
