<?xml version="1.0" encoding="UTF-8" standalone="no"?>
<!DOCTYPE svg PUBLIC "-//W3C//DTD SVG 1.1//EN"
 "http://www.w3.org/Graphics/SVG/1.1/DTD/svg11.dtd">
<!-- Generated by graphviz version 2.40.1 (20161225.0304)
 -->
<!-- Title: html Pages: 1 -->
<svg width="119pt" height="85pt"
 viewBox="0.00 0.00 119.00 85.00" xmlns="http://www.w3.org/2000/svg" xmlns:xlink="http://www.w3.org/1999/xlink">
<g id="graph0" class="graph" transform="scale(1 1) rotate(0) translate(4 81)">
<title>html</title>
<polygon fill="#ffffff" stroke="transparent" points="-4,4 -4,-81 115,-81 115,4 -4,4"/>
<!-- abc -->
<g id="node1" class="node">
<title>abc</title>
<polygon fill="none" stroke="#000000" points="1.5,-50.5 1.5,-75.5 53.5,-75.5 53.5,-50.5 1.5,-50.5"/>
<text text-anchor="start" x="6.5" y="-59.3" font-family="Times,serif" font-size="14.00" fill="#9ea2a8">Student</text>
<polygon fill="none" stroke="#000000" points="53.5,-50.5 53.5,-75.5 110.5,-75.5 110.5,-50.5 53.5,-50.5"/>
<text text-anchor="start" x="62.5" y="-59.3" font-family="Times,serif" font-size="14.00" fill="#9ea2a8">Project</text>
<polygon fill="none" stroke="#000000" points="1.5,-25.5 1.5,-50.5 53.5,-50.5 53.5,-25.5 1.5,-25.5"/>
<text text-anchor="start" x="13" y="-34.3" font-family="Times,serif" font-size="14.00" fill="#75778a">&quot;RF&quot;</text>
<polygon fill="none" stroke="#000000" points="53.5,-25.5 53.5,-50.5 110.5,-50.5 110.5,-25.5 53.5,-25.5"/>
<text text-anchor="start" x="64.5" y="-34.3" font-family="Times,serif" font-size="14.00" fill="#75778a"> &quot;Inj&quot; </text>
<polygon fill="none" stroke="#000000" points="1.5,-.5 1.5,-25.5 53.5,-25.5 53.5,-.5 1.5,-.5"/>
<text text-anchor="start" x="13.5" y="-9.3" font-family="Times,serif" font-size="14.00" fill="#75778a">&quot;JG&quot;</text>
<polygon fill="none" stroke="#000000" points="53.5,-.5 53.5,-25.5 110.5,-25.5 110.5,-.5 53.5,-.5"/>
<text text-anchor="start" x="58.5" y="-9.3" font-family="Times,serif" font-size="14.00" fill="#75778a"> &quot;Auto&quot; </text>
<polygon fill="none" stroke="#000000" points="0,0 0,-77 111,-77 111,0 0,0"/>
</g>
</g>
</svg>
