<?xml version="1.0" encoding="UTF-8" standalone="no"?>
<!DOCTYPE svg PUBLIC "-//W3C//DTD SVG 1.1//EN"
 "http://www.w3.org/Graphics/SVG/1.1/DTD/svg11.dtd">
<!-- Generated by graphviz version 2.40.1 (20161225.0304)
 -->
<!-- Title: finite_state_machine Pages: 1 -->
<svg width="433pt" height="124pt"
 viewBox="0.00 0.00 433.09 124.40" xmlns="http://www.w3.org/2000/svg" xmlns:xlink="http://www.w3.org/1999/xlink">
<g id="graph0" class="graph" transform="scale(1 1) rotate(0) translate(4 120.3956)">
<title>finite_state_machine</title>
<polygon fill="#ffffff" stroke="transparent" points="-4,4 -4,-120.3956 429.0911,-120.3956 429.0911,4 -4,4"/>
<!-- S -->
<g id="node1" class="node">
<title>S</title>
<ellipse fill="#c7cde2" stroke="#bec4da" cx="22" cy="-55.7982" rx="18" ry="18"/>
<ellipse fill="none" stroke="#bec4da" cx="22" cy="-55.7982" rx="22" ry="22"/>
<text text-anchor="middle" x="22" y="-52.0982" font-family="Times,serif" font-size="14.00" fill="#000000">S</text>
</g>
<!-- RF -->
<g id="node5" class="node">
<title>RF</title>
<ellipse fill="#dde0ea" stroke="#737683" cx="144.4481" cy="-85.7982" rx="21.3963" ry="21.3963"/>
<text text-anchor="middle" x="144.4481" y="-82.0982" font-family="Times,serif" font-size="14.00" fill="#000000">RF</text>
</g>
<!-- S&#45;&gt;RF -->
<g id="edge4" class="edge">
<title>S&#45;&gt;RF</title>
<path fill="none" stroke="#000000" d="M43.6094,-61.0925C63.0501,-65.8555 91.8296,-72.9065 113.6725,-78.2581"/>
<polygon fill="#000000" stroke="#000000" points="112.9181,-81.6767 123.4638,-80.657 114.5839,-74.8778 112.9181,-81.6767"/>
<text text-anchor="middle" x="83.5" y="-79.5982" font-family="Times,serif" font-size="14.00" fill="#000000">[1/1](0)</text>
</g>
<!-- JG -->
<g id="node6" class="node">
<title>JG</title>
<ellipse fill="#dde0ea" stroke="#737683" cx="144.4481" cy="-25.7982" rx="20.5982" ry="20.5982"/>
<text text-anchor="middle" x="144.4481" y="-22.0982" font-family="Times,serif" font-size="14.00" fill="#000000">JG</text>
</g>
<!-- S&#45;&gt;JG -->
<g id="edge5" class="edge">
<title>S&#45;&gt;JG</title>
<path fill="none" stroke="#000000" d="M43.6094,-50.5038C63.1686,-45.7118 92.1809,-38.6037 114.0713,-33.2405"/>
<polygon fill="#000000" stroke="#000000" points="114.9901,-36.619 123.87,-30.8398 113.3243,-29.8201 114.9901,-36.619"/>
<text text-anchor="middle" x="83.5" y="-48.5982" font-family="Times,serif" font-size="14.00" fill="#000000">[1/1](0)</text>
</g>
<!-- P -->
<g id="node2" class="node">
<title>P</title>
<ellipse fill="#c7cde2" stroke="#bec4da" cx="403.0911" cy="-53.7982" rx="18" ry="18"/>
<ellipse fill="none" stroke="#bec4da" cx="403.0911" cy="-53.7982" rx="22" ry="22"/>
<text text-anchor="middle" x="403.0911" y="-50.0982" font-family="Times,serif" font-size="14.00" fill="#000000">P</text>
</g>
<!-- Inj -->
<g id="node3" class="node">
<title>Inj</title>
<ellipse fill="#dde0ea" stroke="#737683" cx="273.4937" cy="-20.7982" rx="20.5982" ry="20.5982"/>
<text text-anchor="middle" x="273.4937" y="-17.0982" font-family="Times,serif" font-size="14.00" fill="#000000">Inj</text>
</g>
<!-- Inj&#45;&gt;P -->
<g id="edge1" class="edge">
<title>Inj&#45;&gt;P</title>
<path fill="none" stroke="#000000" d="M293.817,-25.6194C312.0032,-29.9738 339.3747,-36.6267 363.0911,-42.7982 365.901,-43.5293 368.8177,-44.303 371.7381,-45.0876"/>
<polygon fill="#000000" stroke="#000000" points="370.9626,-48.5038 381.5307,-47.7518 372.8003,-41.7493 370.9626,-48.5038"/>
<text text-anchor="middle" x="341.5911" y="-46.5982" font-family="Times,serif" font-size="14.00" fill="#000000">[1/1](0)</text>
</g>
<!-- Auto -->
<g id="node4" class="node">
<title>Auto</title>
<ellipse fill="#dde0ea" stroke="#737683" cx="273.4937" cy="-87.7982" rx="28.6953" ry="28.6953"/>
<text text-anchor="middle" x="273.4937" y="-84.0982" font-family="Times,serif" font-size="14.00" fill="#000000">Auto</text>
</g>
<!-- Auto&#45;&gt;P -->
<g id="edge2" class="edge">
<title>Auto&#45;&gt;P</title>
<path fill="none" stroke="#000000" d="M301.2956,-80.5043C322.0044,-75.0713 350.2947,-67.6493 371.796,-62.0084"/>
<polygon fill="#000000" stroke="#000000" points="372.9585,-65.322 381.7429,-59.3989 371.1821,-58.5511 372.9585,-65.322"/>
<text text-anchor="middle" x="341.5911" y="-78.5982" font-family="Times,serif" font-size="14.00" fill="#000000">[1/1](0)</text>
</g>
<!-- RF&#45;&gt;Auto -->
<g id="edge3" class="edge">
<title>RF&#45;&gt;Auto</title>
<path fill="none" stroke="#000000" d="M166.0474,-86.1329C184.6296,-86.4209 211.9045,-86.8436 234.3235,-87.1911"/>
<polygon fill="#000000" stroke="#000000" points="234.5028,-90.6942 244.5559,-87.3497 234.6114,-83.695 234.5028,-90.6942"/>
<text text-anchor="middle" x="205.3962" y="-90.5982" font-family="Times,serif" font-size="14.00" fill="#000000">[1/1](0)</text>
</g>
<!-- JG&#45;&gt;Inj -->
<g id="edge6" class="edge">
<title>JG&#45;&gt;Inj</title>
<path fill="none" stroke="#000000" d="M165.4687,-24.9837C186.2784,-24.1774 218.3884,-22.9333 242.1974,-22.0108"/>
<polygon fill="#000000" stroke="#000000" points="242.6251,-25.4969 252.482,-21.6123 242.354,-18.5022 242.6251,-25.4969"/>
<text text-anchor="middle" x="205.3962" y="-28.5982" font-family="Times,serif" font-size="14.00" fill="#000000">[1/1](0)</text>
</g>
</g>
</svg>
