<?xml version="1.0" encoding="UTF-8" standalone="no"?>
<!DOCTYPE svg PUBLIC "-//W3C//DTD SVG 1.1//EN"
 "http://www.w3.org/Graphics/SVG/1.1/DTD/svg11.dtd">
<!-- Generated by graphviz version 2.40.1 (20161225.0304)
 -->
<!-- Title: finite_state_machine Pages: 1 -->
<svg width="576pt" height="135pt"
 viewBox="0.00 0.00 576.00 135.16" xmlns="http://www.w3.org/2000/svg" xmlns:xlink="http://www.w3.org/1999/xlink">
<g id="graph0" class="graph" transform="scale(.9071 .9071) rotate(0) translate(4 145)">
<title>finite_state_machine</title>
<polygon fill="#ffffff" stroke="transparent" points="-4,4 -4,-145 631,-145 631,4 -4,4"/>
<!-- 0 -->
<g id="node1" class="node">
<title>0</title>
<ellipse fill="#0000ff" stroke="#000000" cx="22" cy="-96" rx="18" ry="18"/>
<ellipse fill="none" stroke="#000000" cx="22" cy="-96" rx="22" ry="22"/>
<text text-anchor="middle" x="22" y="-92.3" font-family="Times,serif" font-size="14.00" fill="#000000">0</text>
</g>
<!-- 2 -->
<g id="node3" class="node">
<title>2</title>
<ellipse fill="#dde0ea" stroke="#737683" cx="168" cy="-123" rx="18" ry="18"/>
<text text-anchor="middle" x="168" y="-119.3" font-family="Times,serif" font-size="14.00" fill="#000000">2</text>
</g>
<!-- 0&#45;&gt;2 -->
<g id="edge7" class="edge">
<title>0&#45;&gt;2</title>
<path fill="none" stroke="#000000" d="M43.8577,-100.0422C69.5334,-104.7904 112.172,-112.6756 140.183,-117.8558"/>
<polygon fill="#000000" stroke="#000000" points="139.6666,-121.3195 150.1364,-119.6964 140.9396,-114.4362 139.6666,-121.3195"/>
<text text-anchor="middle" x="97" y="-118.8" font-family="Times,serif" font-size="14.00" fill="#000000">[100/100](0)</text>
</g>
<!-- 5 -->
<g id="node6" class="node">
<title>5</title>
<ellipse fill="#dde0ea" stroke="#737683" cx="168" cy="-69" rx="18" ry="18"/>
<text text-anchor="middle" x="168" y="-65.3" font-family="Times,serif" font-size="14.00" fill="#000000">5</text>
</g>
<!-- 0&#45;&gt;5 -->
<g id="edge8" class="edge">
<title>0&#45;&gt;5</title>
<path fill="none" stroke="#000000" d="M43.0183,-89.0459C49.0941,-87.2129 55.7681,-85.3675 62,-84 88.0909,-78.2746 118.2951,-74.2501 139.771,-71.8212"/>
<polygon fill="#000000" stroke="#000000" points="140.2834,-75.2863 149.8467,-70.7263 139.5271,-68.3272 140.2834,-75.2863"/>
<text text-anchor="middle" x="97" y="-87.8" font-family="Times,serif" font-size="14.00" fill="#000000">[100/100](0)</text>
</g>
<!-- 1 -->
<g id="node2" class="node">
<title>1</title>
<ellipse fill="#ff0000" stroke="#000000" cx="605" cy="-45" rx="18" ry="18"/>
<ellipse fill="none" stroke="#000000" cx="605" cy="-45" rx="22" ry="22"/>
<text text-anchor="middle" x="605" y="-41.3" font-family="Times,serif" font-size="14.00" fill="#000000">1</text>
</g>
<!-- 3 -->
<g id="node4" class="node">
<title>3</title>
<ellipse fill="#dde0ea" stroke="#737683" cx="313.5" cy="-123" rx="18" ry="18"/>
<text text-anchor="middle" x="313.5" y="-119.3" font-family="Times,serif" font-size="14.00" fill="#000000">3</text>
</g>
<!-- 2&#45;&gt;3 -->
<g id="edge1" class="edge">
<title>2&#45;&gt;3</title>
<path fill="none" stroke="#000000" d="M186.1335,-123C210.9656,-123 255.8044,-123 285.1099,-123"/>
<polygon fill="#000000" stroke="#000000" points="285.138,-126.5001 295.138,-123 285.138,-119.5001 285.138,-126.5001"/>
<text text-anchor="middle" x="239" y="-126.8" font-family="Times,serif" font-size="14.00" fill="#000000">[100/100](0)</text>
</g>
<!-- 4 -->
<g id="node5" class="node">
<title>4</title>
<ellipse fill="#dde0ea" stroke="#737683" cx="459" cy="-72" rx="18" ry="18"/>
<text text-anchor="middle" x="459" y="-68.3" font-family="Times,serif" font-size="14.00" fill="#000000">4</text>
</g>
<!-- 3&#45;&gt;4 -->
<g id="edge2" class="edge">
<title>3&#45;&gt;4</title>
<path fill="none" stroke="#000000" d="M330.6531,-117.4689C352.2806,-110.4344 390.5591,-97.7821 423,-86 426.1516,-84.8554 429.4454,-83.6238 432.7056,-82.383"/>
<polygon fill="#000000" stroke="#000000" points="434.1437,-85.5795 442.2097,-78.71 431.6204,-79.0501 434.1437,-85.5795"/>
<text text-anchor="middle" x="388" y="-112.8" font-family="Times,serif" font-size="14.00" fill="#000000">[100/100](0)</text>
</g>
<!-- 4&#45;&gt;1 -->
<g id="edge9" class="edge">
<title>4&#45;&gt;1</title>
<path fill="none" stroke="#000000" d="M476.9025,-68.6893C500.7739,-64.2747 543.4381,-56.3847 572.9315,-50.9305"/>
<polygon fill="#000000" stroke="#000000" points="573.9456,-54.3024 583.1423,-49.0422 572.6726,-47.4191 573.9456,-54.3024"/>
<text text-anchor="middle" x="530" y="-68.8" font-family="Times,serif" font-size="14.00" fill="#000000">[100/100](0)</text>
</g>
<!-- 5&#45;&gt;4 -->
<g id="edge4" class="edge">
<title>5&#45;&gt;4</title>
<path fill="none" stroke="#000000" d="M186.2034,-69.1877C235.4009,-69.6949 371.2997,-71.0959 430.6504,-71.7077"/>
<polygon fill="#000000" stroke="#000000" points="430.7679,-75.209 440.8035,-71.8124 430.8402,-68.2094 430.7679,-75.209"/>
<text text-anchor="middle" x="313.5" y="-73.8" font-family="Times,serif" font-size="14.00" fill="#000000">[0/1](0)</text>
</g>
<!-- 6 -->
<g id="node7" class="node">
<title>6</title>
<ellipse fill="#dde0ea" stroke="#737683" cx="313.5" cy="-18" rx="18" ry="18"/>
<text text-anchor="middle" x="313.5" y="-14.3" font-family="Times,serif" font-size="14.00" fill="#000000">6</text>
</g>
<!-- 5&#45;&gt;6 -->
<g id="edge3" class="edge">
<title>5&#45;&gt;6</title>
<path fill="none" stroke="#000000" d="M181.8902,-56.9545C188.2594,-51.9816 196.1333,-46.5601 204,-43 230.225,-31.1318 262.6159,-24.6381 285.3412,-21.2669"/>
<polygon fill="#000000" stroke="#000000" points="285.918,-24.7207 295.3482,-19.8913 284.9646,-17.7859 285.918,-24.7207"/>
<text text-anchor="middle" x="239" y="-46.8" font-family="Times,serif" font-size="14.00" fill="#000000">[100/100](0)</text>
</g>
<!-- 7 -->
<g id="node8" class="node">
<title>7</title>
<ellipse fill="#dde0ea" stroke="#737683" cx="459" cy="-18" rx="18" ry="18"/>
<text text-anchor="middle" x="459" y="-14.3" font-family="Times,serif" font-size="14.00" fill="#000000">7</text>
</g>
<!-- 6&#45;&gt;7 -->
<g id="edge5" class="edge">
<title>6&#45;&gt;7</title>
<path fill="none" stroke="#000000" d="M331.6335,-18C356.4656,-18 401.3044,-18 430.6099,-18"/>
<polygon fill="#000000" stroke="#000000" points="430.638,-21.5001 440.638,-18 430.638,-14.5001 430.638,-21.5001"/>
<text text-anchor="middle" x="388" y="-21.8" font-family="Times,serif" font-size="14.00" fill="#000000">[100/100](0)</text>
</g>
<!-- 7&#45;&gt;1 -->
<g id="edge6" class="edge">
<title>7&#45;&gt;1</title>
<path fill="none" stroke="#000000" d="M477.2123,-19.042C498.4959,-20.5328 534.6674,-23.9185 565,-31 568.2242,-31.7527 571.5508,-32.6734 574.8443,-33.6797"/>
<polygon fill="#000000" stroke="#000000" points="573.8961,-37.0526 584.4894,-36.8734 576.0965,-30.4074 573.8961,-37.0526"/>
<text text-anchor="middle" x="530" y="-34.8" font-family="Times,serif" font-size="14.00" fill="#000000">[100/100](0)</text>
</g>
</g>
</svg>
