<?xml version="1.0" encoding="UTF-8" standalone="no"?>
<!DOCTYPE svg PUBLIC "-//W3C//DTD SVG 1.1//EN"
 "http://www.w3.org/Graphics/SVG/1.1/DTD/svg11.dtd">
<!-- Generated by graphviz version 2.40.1 (20161225.0304)
 -->
<!-- Title: finite_state_machine Pages: 1 -->
<svg width="576pt" height="179pt"
 viewBox="0.00 0.00 576.00 179.09" xmlns="http://www.w3.org/2000/svg" xmlns:xlink="http://www.w3.org/1999/xlink">
<g id="graph0" class="graph" transform="scale(.9114 .9114) rotate(0) translate(4 192.4983)">
<title>finite_state_machine</title>
<polygon fill="#ffffff" stroke="transparent" points="-4,4 -4,-192.4983 627.9862,-192.4983 627.9862,4 -4,4"/>
<!-- 0 -->
<g id="node1" class="node">
<title>0</title>
<ellipse fill="#0000ff" stroke="#000000" cx="22" cy="-22" rx="18" ry="18"/>
<ellipse fill="none" stroke="#000000" cx="22" cy="-22" rx="22" ry="22"/>
<text text-anchor="middle" x="22" y="-18.3" font-family="Times,serif" font-size="14.00" fill="#000000">0</text>
</g>
<!-- 1 -->
<g id="node2" class="node">
<title>1</title>
<ellipse fill="#ff0000" stroke="#000000" cx="22" cy="-84" rx="18" ry="18"/>
<ellipse fill="none" stroke="#000000" cx="22" cy="-84" rx="22" ry="22"/>
<text text-anchor="middle" x="22" y="-80.3" font-family="Times,serif" font-size="14.00" fill="#000000">1</text>
</g>
<!-- _4 -->
<g id="node3" class="node">
<title>_4</title>
<ellipse fill="#dde0ea" stroke="#737683" cx="459.4913" cy="-112" rx="19.4965" ry="19.4965"/>
<text text-anchor="middle" x="459.4913" y="-108.3" font-family="Times,serif" font-size="14.00" fill="#000000">_4</text>
</g>
<!-- _1 -->
<g id="node4" class="node">
<title>_1</title>
<ellipse fill="#dde0ea" stroke="#737683" cx="604.4879" cy="-140" rx="19.4965" ry="19.4965"/>
<text text-anchor="middle" x="604.4879" y="-136.3" font-family="Times,serif" font-size="14.00" fill="#000000">_1</text>
</g>
<!-- _4&#45;&gt;_1 -->
<g id="edge1" class="edge">
<title>_4&#45;&gt;_1</title>
<path fill="none" stroke="#000000" d="M479.1253,-113.5808C500.8417,-115.5965 536.7606,-119.7248 566.9896,-127 570.0397,-127.7341 573.1911,-128.6183 576.3111,-129.5759"/>
<polygon fill="#000000" stroke="#000000" points="575.4157,-132.9663 586.0091,-132.7917 577.6189,-126.3221 575.4157,-132.9663"/>
<text text-anchor="middle" x="531.9896" y="-130.8" font-family="Times,serif" font-size="14.00" fill="#000000">[100/100](0)</text>
</g>
<!-- _0 -->
<g id="node5" class="node">
<title>_0</title>
<ellipse fill="#dde0ea" stroke="#737683" cx="22" cy="-143" rx="19.4965" ry="19.4965"/>
<text text-anchor="middle" x="22" y="-139.3" font-family="Times,serif" font-size="14.00" fill="#000000">_0</text>
</g>
<!-- _5 -->
<g id="node6" class="node">
<title>_5</title>
<ellipse fill="#dde0ea" stroke="#737683" cx="169.4983" cy="-169" rx="19.4965" ry="19.4965"/>
<text text-anchor="middle" x="169.4983" y="-165.3" font-family="Times,serif" font-size="14.00" fill="#000000">_5</text>
</g>
<!-- _0&#45;&gt;_5 -->
<g id="edge2" class="edge">
<title>_0&#45;&gt;_5</title>
<path fill="none" stroke="#000000" d="M41.2828,-146.399C66.4589,-150.8369 110.7685,-158.6475 140.1319,-163.8235"/>
<polygon fill="#000000" stroke="#000000" points="139.7549,-167.3109 150.2107,-165.6001 140.9702,-160.4172 139.7549,-167.3109"/>
<text text-anchor="middle" x="97" y="-165.8" font-family="Times,serif" font-size="14.00" fill="#000000">[100/100](0)</text>
</g>
<!-- _2 -->
<g id="node7" class="node">
<title>_2</title>
<ellipse fill="#dde0ea" stroke="#737683" cx="169.4983" cy="-112" rx="19.4965" ry="19.4965"/>
<text text-anchor="middle" x="169.4983" y="-108.3" font-family="Times,serif" font-size="14.00" fill="#000000">_2</text>
</g>
<!-- _0&#45;&gt;_2 -->
<g id="edge3" class="edge">
<title>_0&#45;&gt;_2</title>
<path fill="none" stroke="#000000" d="M40.5996,-136.9291C47.2995,-134.873 54.946,-132.6755 62,-131 88.1462,-124.7898 118.3082,-119.63 140.0158,-116.2623"/>
<polygon fill="#000000" stroke="#000000" points="140.577,-119.7173 149.9385,-114.7562 139.5265,-112.7965 140.577,-119.7173"/>
<text text-anchor="middle" x="97" y="-134.8" font-family="Times,serif" font-size="14.00" fill="#000000">[100/100](0)</text>
</g>
<!-- _6 -->
<g id="node9" class="node">
<title>_6</title>
<ellipse fill="#dde0ea" stroke="#737683" cx="314.4948" cy="-169" rx="19.4965" ry="19.4965"/>
<text text-anchor="middle" x="314.4948" y="-165.3" font-family="Times,serif" font-size="14.00" fill="#000000">_6</text>
</g>
<!-- _5&#45;&gt;_6 -->
<g id="edge6" class="edge">
<title>_5&#45;&gt;_6</title>
<path fill="none" stroke="#000000" d="M189.0531,-169C213.5918,-169 255.9234,-169 284.5514,-169"/>
<polygon fill="#000000" stroke="#000000" points="284.7867,-172.5001 294.7867,-169 284.7866,-165.5001 284.7867,-172.5001"/>
<text text-anchor="middle" x="241.9965" y="-172.8" font-family="Times,serif" font-size="14.00" fill="#000000">[100/100](0)</text>
</g>
<!-- _3 -->
<g id="node10" class="node">
<title>_3</title>
<ellipse fill="#dde0ea" stroke="#737683" cx="314.4948" cy="-112" rx="19.4965" ry="19.4965"/>
<text text-anchor="middle" x="314.4948" y="-108.3" font-family="Times,serif" font-size="14.00" fill="#000000">_3</text>
</g>
<!-- _2&#45;&gt;_3 -->
<g id="edge8" class="edge">
<title>_2&#45;&gt;_3</title>
<path fill="none" stroke="#000000" d="M189.0531,-112C213.5918,-112 255.9234,-112 284.5514,-112"/>
<polygon fill="#000000" stroke="#000000" points="284.7867,-115.5001 294.7867,-112 284.7866,-108.5001 284.7867,-115.5001"/>
<text text-anchor="middle" x="241.9965" y="-115.8" font-family="Times,serif" font-size="14.00" fill="#000000">[100/100](0)</text>
</g>
<!-- _7 -->
<g id="node8" class="node">
<title>_7</title>
<ellipse fill="#dde0ea" stroke="#737683" cx="459.4913" cy="-169" rx="19.4965" ry="19.4965"/>
<text text-anchor="middle" x="459.4913" y="-165.3" font-family="Times,serif" font-size="14.00" fill="#000000">_7</text>
</g>
<!-- _7&#45;&gt;_1 -->
<g id="edge4" class="edge">
<title>_7&#45;&gt;_1</title>
<path fill="none" stroke="#000000" d="M478.7458,-165.149C503.4451,-160.209 546.52,-151.5938 575.2703,-145.8437"/>
<polygon fill="#000000" stroke="#000000" points="576.0345,-149.2602 585.1538,-143.8669 574.6616,-142.3962 576.0345,-149.2602"/>
<text text-anchor="middle" x="531.9896" y="-164.8" font-family="Times,serif" font-size="14.00" fill="#000000">[100/100](0)</text>
</g>
<!-- _6&#45;&gt;_7 -->
<g id="edge5" class="edge">
<title>_6&#45;&gt;_7</title>
<path fill="none" stroke="#000000" d="M334.0497,-169C358.5884,-169 400.92,-169 429.5479,-169"/>
<polygon fill="#000000" stroke="#000000" points="429.7832,-172.5001 439.7832,-169 429.7832,-165.5001 429.7832,-172.5001"/>
<text text-anchor="middle" x="386.9931" y="-172.8" font-family="Times,serif" font-size="14.00" fill="#000000">[100/100](0)</text>
</g>
<!-- _3&#45;&gt;_4 -->
<g id="edge7" class="edge">
<title>_3&#45;&gt;_4</title>
<path fill="none" stroke="#000000" d="M334.0497,-112C358.5884,-112 400.92,-112 429.5479,-112"/>
<polygon fill="#000000" stroke="#000000" points="429.7832,-115.5001 439.7832,-112 429.7832,-108.5001 429.7832,-115.5001"/>
<text text-anchor="middle" x="386.9931" y="-115.8" font-family="Times,serif" font-size="14.00" fill="#000000">[100/100](0)</text>
</g>
</g>
</svg>
