<?xml version="1.0" encoding="UTF-8" standalone="no"?>
<!DOCTYPE svg PUBLIC "-//W3C//DTD SVG 1.1//EN"
 "http://www.w3.org/Graphics/SVG/1.1/DTD/svg11.dtd">
<!-- Generated by graphviz version 2.40.1 (20161225.0304)
 -->
<!-- Title: finite_state_machine Pages: 1 -->
<svg width="433pt" height="124pt"
 viewBox="0.00 0.00 433.09 124.40" xmlns="http://www.w3.org/2000/svg" xmlns:xlink="http://www.w3.org/1999/xlink">
<g id="graph0" class="graph" transform="scale(1 1) rotate(0) translate(4 120.3956)">
<title>finite_state_machine</title>
<polygon fill="#ffffff" stroke="transparent" points="-4,4 -4,-120.3956 429.0911,-120.3956 429.0911,4 -4,4"/>
<!-- S -->
<g id="node1" class="node">
<title>S</title>
<ellipse fill="#c7cde2" stroke="#bec4da" cx="22" cy="-62.5975" rx="18" ry="18"/>
<ellipse fill="none" stroke="#bec4da" cx="22" cy="-62.5975" rx="22" ry="22"/>
<text text-anchor="middle" x="22" y="-58.8975" font-family="Times,serif" font-size="14.00" fill="#000000">S</text>
</g>
<!-- RF -->
<g id="node5" class="node">
<title>RF</title>
<ellipse fill="#dde0ea" stroke="#737683" cx="144.4481" cy="-92.5975" rx="21.3963" ry="21.3963"/>
<text text-anchor="middle" x="144.4481" y="-88.8975" font-family="Times,serif" font-size="14.00" fill="#000000">RF</text>
</g>
<!-- S&#45;&gt;RF -->
<g id="edge5" class="edge">
<title>S&#45;&gt;RF</title>
<path fill="none" stroke="#000000" d="M43.6094,-67.8918C63.0501,-72.6548 91.8296,-79.7058 113.6725,-85.0574"/>
<polygon fill="#000000" stroke="#000000" points="112.9181,-88.476 123.4638,-87.4563 114.5839,-81.6771 112.9181,-88.476"/>
<text text-anchor="middle" x="83.5" y="-86.3975" font-family="Times,serif" font-size="14.00" fill="#000000">[1/1](0)</text>
</g>
<!-- JG -->
<g id="node6" class="node">
<title>JG</title>
<ellipse fill="#dde0ea" stroke="#737683" cx="144.4481" cy="-32.5975" rx="20.5982" ry="20.5982"/>
<text text-anchor="middle" x="144.4481" y="-28.8975" font-family="Times,serif" font-size="14.00" fill="#000000">JG</text>
</g>
<!-- S&#45;&gt;JG -->
<g id="edge6" class="edge">
<title>S&#45;&gt;JG</title>
<path fill="none" stroke="#000000" d="M43.6094,-57.3031C63.1686,-52.5111 92.1809,-45.403 114.0713,-40.0398"/>
<polygon fill="#000000" stroke="#000000" points="114.9901,-43.4183 123.87,-37.6391 113.3243,-36.6194 114.9901,-43.4183"/>
<text text-anchor="middle" x="83.5" y="-55.3975" font-family="Times,serif" font-size="14.00" fill="#000000">[1/1](0)</text>
</g>
<!-- P -->
<g id="node2" class="node">
<title>P</title>
<ellipse fill="#c7cde2" stroke="#bec4da" cx="403.0911" cy="-61.5975" rx="18" ry="18"/>
<ellipse fill="none" stroke="#bec4da" cx="403.0911" cy="-61.5975" rx="22" ry="22"/>
<text text-anchor="middle" x="403.0911" y="-57.8975" font-family="Times,serif" font-size="14.00" fill="#000000">P</text>
</g>
<!-- Inj -->
<g id="node3" class="node">
<title>Inj</title>
<ellipse fill="#dde0ea" stroke="#737683" cx="273.4937" cy="-95.5975" rx="20.5982" ry="20.5982"/>
<text text-anchor="middle" x="273.4937" y="-91.8975" font-family="Times,serif" font-size="14.00" fill="#000000">Inj</text>
</g>
<!-- Inj&#45;&gt;P -->
<g id="edge1" class="edge">
<title>Inj&#45;&gt;P</title>
<path fill="none" stroke="#000000" d="M293.7433,-90.285C314.6731,-84.794 347.6213,-76.15 371.8844,-69.7846"/>
<polygon fill="#000000" stroke="#000000" points="372.9063,-73.135 381.6907,-67.2119 371.1299,-66.3641 372.9063,-73.135"/>
<text text-anchor="middle" x="341.5911" y="-86.3975" font-family="Times,serif" font-size="14.00" fill="#000000">[1/1](0)</text>
</g>
<!-- Auto -->
<g id="node4" class="node">
<title>Auto</title>
<ellipse fill="#dde0ea" stroke="#737683" cx="273.4937" cy="-28.5975" rx="28.6953" ry="28.6953"/>
<text text-anchor="middle" x="273.4937" y="-24.8975" font-family="Times,serif" font-size="14.00" fill="#000000">Auto</text>
</g>
<!-- Auto&#45;&gt;P -->
<g id="edge2" class="edge">
<title>Auto&#45;&gt;P</title>
<path fill="none" stroke="#000000" d="M301.391,-35.2379C319.0967,-39.5042 342.4749,-45.2327 363.0911,-50.5975 365.901,-51.3286 368.8177,-52.1023 371.7381,-52.8869"/>
<polygon fill="#000000" stroke="#000000" points="370.9626,-56.3031 381.5307,-55.5511 372.8003,-49.5486 370.9626,-56.3031"/>
<text text-anchor="middle" x="341.5911" y="-54.3975" font-family="Times,serif" font-size="14.00" fill="#000000">[1/1](0)</text>
</g>
<!-- RF&#45;&gt;Inj -->
<g id="edge3" class="edge">
<title>RF&#45;&gt;Inj</title>
<path fill="none" stroke="#000000" d="M165.6931,-95.789C171.575,-96.5365 177.971,-97.2235 183.8962,-97.5975 203.3136,-98.8231 225.1393,-98.3742 242.3876,-97.5942"/>
<polygon fill="#000000" stroke="#000000" points="242.6653,-101.0847 252.4732,-97.0778 242.3072,-94.0938 242.6653,-101.0847"/>
<text text-anchor="middle" x="205.3962" y="-101.3975" font-family="Times,serif" font-size="14.00" fill="#000000">[1/1](1)</text>
</g>
<!-- RF&#45;&gt;Auto -->
<g id="edge4" class="edge">
<title>RF&#45;&gt;Auto</title>
<path fill="none" stroke="#000000" d="M164.7814,-85.0108C185.3893,-77.2233 215.7732,-65.4432 226.8962,-59.5975 231.7343,-57.0548 236.696,-54.1328 241.4933,-51.121"/>
<polygon fill="#000000" stroke="#000000" points="243.4111,-54.049 249.889,-45.6653 239.5968,-48.1794 243.4111,-54.049"/>
<text text-anchor="middle" x="205.3962" y="-80.3975" font-family="Times,serif" font-size="14.00" fill="#000000">[0/1](0)</text>
</g>
<!-- JG&#45;&gt;Inj -->
<g id="edge8" class="edge">
<title>JG&#45;&gt;Inj</title>
<path fill="none" stroke="#000000" d="M165.4354,-31.5712C182.9508,-31.6309 208.0112,-33.9147 226.8962,-44.5975 237.8923,-50.8177 236.4518,-57.2008 244.8962,-66.5975 246.8901,-68.8162 249.0035,-71.0913 251.1428,-73.3438"/>
<polygon fill="#000000" stroke="#000000" points="248.904,-76.0625 258.3802,-80.8009 253.9272,-71.1873 248.904,-76.0625"/>
<text text-anchor="middle" x="205.3962" y="-48.3975" font-family="Times,serif" font-size="14.00" fill="#000000">[0/1](0)</text>
</g>
<!-- JG&#45;&gt;Auto -->
<g id="edge7" class="edge">
<title>JG&#45;&gt;Auto</title>
<path fill="none" stroke="#000000" d="M160.6296,-18.8514C167.3735,-13.982 175.5681,-9.0951 183.8962,-6.5975 202.2018,-1.1075 208.248,-2.4166 226.8962,-6.5975 231.0209,-7.5222 235.2103,-8.855 239.3002,-10.4138"/>
<polygon fill="#000000" stroke="#000000" points="238.0137,-13.6701 248.585,-14.3754 240.7608,-7.2317 238.0137,-13.6701"/>
<text text-anchor="middle" x="205.3962" y="-10.3975" font-family="Times,serif" font-size="14.00" fill="#000000">[1/1](1)</text>
</g>
</g>
</svg>
