<?xml version="1.0" encoding="UTF-8" standalone="no"?>
<!DOCTYPE svg PUBLIC "-//W3C//DTD SVG 1.1//EN"
 "http://www.w3.org/Graphics/SVG/1.1/DTD/svg11.dtd">
<!-- Generated by graphviz version 2.40.1 (20161225.0304)
 -->
<!-- Title: finite_state_machine Pages: 1 -->
<svg width="365pt" height="360pt"
 viewBox="0.00 0.00 364.58 360.00" xmlns="http://www.w3.org/2000/svg" xmlns:xlink="http://www.w3.org/1999/xlink">
<g id="graph0" class="graph" transform="scale(.8368 .8368) rotate(0) translate(4 426.2149)">
<title>finite_state_machine</title>
<polygon fill="#ffffff" stroke="transparent" points="-4,4 -4,-426.2149 431.6909,-426.2149 431.6909,4 -4,4"/>
<!-- S -->
<g id="node1" class="node">
<title>S</title>
<ellipse fill="#c7cde2" stroke="#bec4da" cx="22" cy="-210.2149" rx="18" ry="18"/>
<ellipse fill="none" stroke="#bec4da" cx="22" cy="-210.2149" rx="22" ry="22"/>
<text text-anchor="middle" x="22" y="-206.5149" font-family="Times,serif" font-size="14.00" fill="#000000">S</text>
</g>
<!-- EL -->
<g id="node6" class="node">
<title>EL</title>
<ellipse fill="#dde0ea" stroke="#737683" cx="145.748" cy="-43.2149" rx="21.3963" ry="21.3963"/>
<text text-anchor="middle" x="145.748" y="-39.5149" font-family="Times,serif" font-size="14.00" fill="#000000">EL</text>
</g>
<!-- S&#45;&gt;EL -->
<g id="edge14" class="edge">
<title>S&#45;&gt;EL</title>
<path fill="none" stroke="#000000" d="M29.5438,-189.452C36.5048,-171.7565 47.8851,-146.1057 62,-126.2149 78.9507,-102.3277 103.116,-79.2137 121.1355,-63.4709"/>
<polygon fill="#000000" stroke="#000000" points="123.6236,-65.9479 128.9343,-56.7801 119.0656,-60.6351 123.6236,-65.9479"/>
<text text-anchor="middle" x="83.5" y="-130.0149" font-family="Times,serif" font-size="14.00" fill="#000000">[1/1](0)</text>
</g>
<!-- RF -->
<g id="node7" class="node">
<title>RF</title>
<ellipse fill="#dde0ea" stroke="#737683" cx="145.748" cy="-247.2149" rx="21.3963" ry="21.3963"/>
<text text-anchor="middle" x="145.748" y="-243.5149" font-family="Times,serif" font-size="14.00" fill="#000000">RF</text>
</g>
<!-- S&#45;&gt;RF -->
<g id="edge15" class="edge">
<title>S&#45;&gt;RF</title>
<path fill="none" stroke="#000000" d="M43.273,-216.5754C63.1686,-222.5241 93.0915,-231.4709 115.4738,-238.163"/>
<polygon fill="#000000" stroke="#000000" points="114.5802,-241.5489 125.1637,-241.0603 116.5855,-234.8423 114.5802,-241.5489"/>
<text text-anchor="middle" x="83.5" y="-237.0149" font-family="Times,serif" font-size="14.00" fill="#000000">[1/1](0)</text>
</g>
<!-- DL -->
<g id="node8" class="node">
<title>DL</title>
<ellipse fill="#dde0ea" stroke="#737683" cx="145.748" cy="-309.2149" rx="22.9987" ry="22.9987"/>
<text text-anchor="middle" x="145.748" y="-305.5149" font-family="Times,serif" font-size="14.00" fill="#000000">DL</text>
</g>
<!-- S&#45;&gt;DL -->
<g id="edge16" class="edge">
<title>S&#45;&gt;DL</title>
<path fill="none" stroke="#000000" d="M36.4412,-226.9686C43.7342,-235.0027 52.9405,-244.5268 62,-252.2149 79.3114,-266.9056 100.4598,-281.2746 117.1733,-291.9107"/>
<polygon fill="#000000" stroke="#000000" points="115.6182,-295.0667 125.9498,-297.4139 119.3369,-289.1362 115.6182,-295.0667"/>
<text text-anchor="middle" x="83.5" y="-287.0149" font-family="Times,serif" font-size="14.00" fill="#000000">[1/1](0)</text>
</g>
<!-- ER -->
<g id="node9" class="node">
<title>ER</title>
<ellipse fill="#dde0ea" stroke="#737683" cx="145.748" cy="-185.2149" rx="22.1965" ry="22.1965"/>
<text text-anchor="middle" x="145.748" y="-181.5149" font-family="Times,serif" font-size="14.00" fill="#000000">ER</text>
</g>
<!-- S&#45;&gt;ER -->
<g id="edge17" class="edge">
<title>S&#45;&gt;ER</title>
<path fill="none" stroke="#000000" d="M43.8388,-205.8029C63.2463,-201.8822 91.8629,-196.1009 113.835,-191.6621"/>
<polygon fill="#000000" stroke="#000000" points="114.6024,-195.0778 123.7113,-189.6668 113.2162,-188.2164 114.6024,-195.0778"/>
<text text-anchor="middle" x="83.5" y="-205.0149" font-family="Times,serif" font-size="14.00" fill="#000000">[1/1](0)</text>
</g>
<!-- JG -->
<g id="node10" class="node">
<title>JG</title>
<ellipse fill="#dde0ea" stroke="#737683" cx="145.748" cy="-385.2149" rx="20.5982" ry="20.5982"/>
<text text-anchor="middle" x="145.748" y="-381.5149" font-family="Times,serif" font-size="14.00" fill="#000000">JG</text>
</g>
<!-- S&#45;&gt;JG -->
<g id="edge18" class="edge">
<title>S&#45;&gt;JG</title>
<path fill="none" stroke="#000000" d="M28.6478,-231.4719C35.3086,-250.9077 46.757,-279.9345 62,-302.2149 78.7392,-326.6822 103.3406,-350.0287 121.5521,-365.6925"/>
<polygon fill="#000000" stroke="#000000" points="119.5173,-368.5549 129.4186,-372.3252 124.0295,-363.2033 119.5173,-368.5549"/>
<text text-anchor="middle" x="83.5" y="-353.0149" font-family="Times,serif" font-size="14.00" fill="#000000">[1/1](0)</text>
</g>
<!-- AB -->
<g id="node11" class="node">
<title>AB</title>
<ellipse fill="#dde0ea" stroke="#737683" cx="145.748" cy="-122.2149" rx="22.9987" ry="22.9987"/>
<text text-anchor="middle" x="145.748" y="-118.5149" font-family="Times,serif" font-size="14.00" fill="#000000">AB</text>
</g>
<!-- S&#45;&gt;AB -->
<g id="edge19" class="edge">
<title>S&#45;&gt;AB</title>
<path fill="none" stroke="#000000" d="M37.7888,-194.8228C44.9314,-188.1756 53.6335,-180.4994 62,-174.2149 79.5496,-161.0325 100.5342,-148.0075 117.1075,-138.2905"/>
<polygon fill="#000000" stroke="#000000" points="118.9099,-141.2914 125.8113,-133.2526 115.4032,-135.2331 118.9099,-141.2914"/>
<text text-anchor="middle" x="83.5" y="-178.0149" font-family="Times,serif" font-size="14.00" fill="#000000">[1/1](0)</text>
</g>
<!-- P -->
<g id="node2" class="node">
<title>P</title>
<ellipse fill="#c7cde2" stroke="#bec4da" cx="405.6909" cy="-157.2149" rx="18" ry="18"/>
<ellipse fill="none" stroke="#bec4da" cx="405.6909" cy="-157.2149" rx="22" ry="22"/>
<text text-anchor="middle" x="405.6909" y="-153.5149" font-family="Times,serif" font-size="14.00" fill="#000000">P</text>
</g>
<!-- Inj -->
<g id="node3" class="node">
<title>Inj</title>
<ellipse fill="#dde0ea" stroke="#737683" cx="276.0934" cy="-290.2149" rx="20.5982" ry="20.5982"/>
<text text-anchor="middle" x="276.0934" y="-286.5149" font-family="Times,serif" font-size="14.00" fill="#000000">Inj</text>
</g>
<!-- Inj&#45;&gt;P -->
<g id="edge1" class="edge">
<title>Inj&#45;&gt;P</title>
<path fill="none" stroke="#000000" d="M290.708,-275.2166C313.2171,-252.1165 356.5429,-207.6532 383.1079,-180.3908"/>
<polygon fill="#000000" stroke="#000000" points="385.6527,-182.7943 390.1248,-173.1896 380.6392,-177.9091 385.6527,-182.7943"/>
<text text-anchor="middle" x="344.1909" y="-243.0149" font-family="Times,serif" font-size="14.00" fill="#000000">[3/3](0)</text>
</g>
<!-- Auto -->
<g id="node4" class="node">
<title>Auto</title>
<ellipse fill="#dde0ea" stroke="#737683" cx="276.0934" cy="-157.2149" rx="28.6953" ry="28.6953"/>
<text text-anchor="middle" x="276.0934" y="-153.5149" font-family="Times,serif" font-size="14.00" fill="#000000">Auto</text>
</g>
<!-- Auto&#45;&gt;P -->
<g id="edge2" class="edge">
<title>Auto&#45;&gt;P</title>
<path fill="none" stroke="#000000" d="M304.8553,-157.2149C325.1416,-157.2149 352.3373,-157.2149 373.3731,-157.2149"/>
<polygon fill="#000000" stroke="#000000" points="373.4446,-160.715 383.4445,-157.2149 373.4445,-153.715 373.4446,-160.715"/>
<text text-anchor="middle" x="344.1909" y="-161.0149" font-family="Times,serif" font-size="14.00" fill="#000000">[2/2](0)</text>
</g>
<!-- Secu -->
<g id="node5" class="node">
<title>Secu</title>
<ellipse fill="#dde0ea" stroke="#737683" cx="276.0934" cy="-81.2149" rx="27.8951" ry="27.8951"/>
<text text-anchor="middle" x="276.0934" y="-77.5149" font-family="Times,serif" font-size="14.00" fill="#000000">Secu</text>
</g>
<!-- Secu&#45;&gt;P -->
<g id="edge3" class="edge">
<title>Secu&#45;&gt;P</title>
<path fill="none" stroke="#000000" d="M300.4697,-95.5099C322.3806,-108.3591 354.5581,-127.229 377.5542,-140.7146"/>
<polygon fill="#000000" stroke="#000000" points="376.0888,-143.9127 386.4855,-145.9522 379.6299,-137.8744 376.0888,-143.9127"/>
<text text-anchor="middle" x="344.1909" y="-136.0149" font-family="Times,serif" font-size="14.00" fill="#000000">[1/1](0)</text>
</g>
<!-- EL&#45;&gt;Auto -->
<g id="edge5" class="edge">
<title>EL&#45;&gt;Auto</title>
<path fill="none" stroke="#000000" d="M167.3408,-43.1073C186.0454,-44.1698 212.6741,-48.6262 229.496,-64.2149 248.0517,-81.4103 235.876,-95.7432 247.496,-118.2149 248.9156,-120.9603 250.5183,-123.7227 252.2221,-126.4402"/>
<polygon fill="#000000" stroke="#000000" points="249.4221,-128.5485 257.9078,-134.8924 255.2303,-124.6414 249.4221,-128.5485"/>
<text text-anchor="middle" x="207.996" y="-68.0149" font-family="Times,serif" font-size="14.00" fill="#000000">[1/1](0)</text>
</g>
<!-- EL&#45;&gt;Secu -->
<g id="edge4" class="edge">
<title>EL&#45;&gt;Secu</title>
<path fill="none" stroke="#000000" d="M159.3353,-26.0932C166.4986,-18.4563 175.9778,-10.2777 186.496,-6.2149 204.3233,.6713 212.7929,3.0719 229.496,-6.2149 244.8071,-14.7277 255.7342,-30.5863 263.1401,-45.5358"/>
<polygon fill="#000000" stroke="#000000" points="259.9659,-47.0105 267.3041,-54.6526 266.3332,-44.1024 259.9659,-47.0105"/>
<text text-anchor="middle" x="207.996" y="-10.0149" font-family="Times,serif" font-size="14.00" fill="#000000">[0/1](1)</text>
</g>
<!-- RF&#45;&gt;Inj -->
<g id="edge6" class="edge">
<title>RF&#45;&gt;Inj</title>
<path fill="none" stroke="#000000" d="M158.416,-264.705C165.6039,-273.144 175.3793,-282.4518 186.496,-287.2149 204.8266,-295.0689 227.2534,-295.8123 245.0839,-294.5955"/>
<polygon fill="#000000" stroke="#000000" points="245.6114,-298.0619 255.2491,-293.6613 244.9707,-291.0913 245.6114,-298.0619"/>
<text text-anchor="middle" x="207.996" y="-298.0149" font-family="Times,serif" font-size="14.00" fill="#000000">[0/1](1)</text>
</g>
<!-- RF&#45;&gt;Auto -->
<g id="edge7" class="edge">
<title>RF&#45;&gt;Auto</title>
<path fill="none" stroke="#000000" d="M159.5739,-230.4933C162.812,-226.0398 166.0316,-221.1027 168.496,-216.2149 180.6471,-192.1142 164.8553,-174.3448 186.496,-158.2149 200.9564,-147.4368 220.6957,-146.2159 237.9666,-148.1064"/>
<polygon fill="#000000" stroke="#000000" points="237.9296,-151.6384 248.3319,-149.6279 238.9463,-144.7126 237.9296,-151.6384"/>
<text text-anchor="middle" x="207.996" y="-162.0149" font-family="Times,serif" font-size="14.00" fill="#000000">[1/1](0)</text>
</g>
<!-- DL&#45;&gt;Inj -->
<g id="edge8" class="edge">
<title>DL&#45;&gt;Inj</title>
<path fill="none" stroke="#000000" d="M166.4447,-318.9231C183.6364,-325.6313 208.5745,-332.197 229.496,-325.2149 238.0496,-322.3603 246.2953,-317.2511 253.4107,-311.8033"/>
<polygon fill="#000000" stroke="#000000" points="255.7183,-314.4367 261.195,-305.3671 251.2579,-309.0418 255.7183,-314.4367"/>
<text text-anchor="middle" x="207.996" y="-331.0149" font-family="Times,serif" font-size="14.00" fill="#000000">[1/1](1)</text>
</g>
<!-- DL&#45;&gt;Auto -->
<g id="edge9" class="edge">
<title>DL&#45;&gt;Auto</title>
<path fill="none" stroke="#000000" d="M160.3149,-291.363C163.3807,-286.9415 166.3362,-282.0731 168.496,-277.2149 183.4771,-243.5167 163.037,-224.6697 186.496,-196.2149 190.2662,-191.6417 216.6192,-180.4398 239.7764,-171.209"/>
<polygon fill="#000000" stroke="#000000" points="241.0827,-174.4562 249.0987,-167.5283 238.512,-167.9453 241.0827,-174.4562"/>
<text text-anchor="middle" x="207.996" y="-200.0149" font-family="Times,serif" font-size="14.00" fill="#000000">[0/1](0)</text>
</g>
<!-- ER&#45;&gt;Inj -->
<g id="edge10" class="edge">
<title>ER&#45;&gt;Inj</title>
<path fill="none" stroke="#000000" d="M159.0788,-203.2633C162.2588,-207.758 165.5755,-212.6099 168.496,-217.2149 177.2354,-230.9951 174.4154,-238.2453 186.496,-249.2149 201.9641,-263.2605 210.4921,-259.5318 229.496,-268.2149 235.4767,-270.9475 241.8643,-273.9245 247.9321,-276.7803"/>
<polygon fill="#000000" stroke="#000000" points="246.5632,-280.0045 257.0996,-281.1157 249.5558,-273.6765 246.5632,-280.0045"/>
<text text-anchor="middle" x="207.996" y="-272.0149" font-family="Times,serif" font-size="14.00" fill="#000000">[1/1](1)</text>
</g>
<!-- ER&#45;&gt;Auto -->
<g id="edge11" class="edge">
<title>ER&#45;&gt;Auto</title>
<path fill="none" stroke="#000000" d="M159.4361,-167.4933C162.5381,-163.2277 165.7302,-158.6265 168.496,-154.2149 177.5779,-139.7282 171.8479,-129.0342 186.496,-120.2149 202.8686,-110.3572 211.4507,-113.9219 229.496,-120.2149 236.0493,-122.5003 242.3725,-126.1346 248.1349,-130.2525"/>
<polygon fill="#000000" stroke="#000000" points="246.1095,-133.1121 256.1377,-136.5307 250.4302,-127.6046 246.1095,-133.1121"/>
<text text-anchor="middle" x="207.996" y="-124.0149" font-family="Times,serif" font-size="14.00" fill="#000000">[0/1](0)</text>
</g>
<!-- JG&#45;&gt;Inj -->
<g id="edge13" class="edge">
<title>JG&#45;&gt;Inj</title>
<path fill="none" stroke="#000000" d="M163.9254,-395.8087C181.989,-404.7984 209.7721,-414.3262 229.496,-401.2149 255.9608,-383.6225 267.4266,-347.7701 272.3745,-321.5548"/>
<polygon fill="#000000" stroke="#000000" points="275.8851,-321.7792 274.0706,-311.3409 268.9796,-320.6324 275.8851,-321.7792"/>
<text text-anchor="middle" x="207.996" y="-411.0149" font-family="Times,serif" font-size="14.00" fill="#000000">[1/1](0)</text>
</g>
<!-- JG&#45;&gt;Auto -->
<g id="edge12" class="edge">
<title>JG&#45;&gt;Auto</title>
<path fill="none" stroke="#000000" d="M166.2461,-381.1728C185.5364,-376.2706 213.7464,-366.0677 229.496,-346.2149 253.7657,-315.6221 238.2677,-298.1593 247.496,-260.2149 252.7992,-238.4094 259.473,-214.2227 265.0393,-194.7694"/>
<polygon fill="#000000" stroke="#000000" points="268.4297,-195.644 267.8361,-185.0658 261.7035,-193.7053 268.4297,-195.644"/>
<text text-anchor="middle" x="207.996" y="-378.0149" font-family="Times,serif" font-size="14.00" fill="#000000">[0/1](1)</text>
</g>
<!-- AB&#45;&gt;Inj -->
<g id="edge21" class="edge">
<title>AB&#45;&gt;Inj</title>
<path fill="none" stroke="#000000" d="M160.0107,-140.21C163.089,-144.6256 166.1264,-149.4554 168.496,-154.2149 180.3361,-177.997 168.7735,-191.4236 186.496,-211.2149 200.434,-226.78 213.0321,-217.3508 229.496,-230.2149 241.3389,-239.4684 251.8714,-252.3723 259.9135,-263.8433"/>
<polygon fill="#000000" stroke="#000000" points="257.0786,-265.9 265.5584,-272.2518 262.8904,-261.9983 257.0786,-265.9"/>
<text text-anchor="middle" x="207.996" y="-234.0149" font-family="Times,serif" font-size="14.00" fill="#000000">[0/1](0)</text>
</g>
<!-- AB&#45;&gt;Secu -->
<g id="edge20" class="edge">
<title>AB&#45;&gt;Secu</title>
<path fill="none" stroke="#000000" d="M163.3932,-107.4722C170.2181,-102.4992 178.3431,-97.4059 186.496,-94.2149 202.585,-87.9177 221.3764,-84.6315 237.5831,-82.9316"/>
<polygon fill="#000000" stroke="#000000" points="238.1526,-86.3949 247.8055,-82.0278 237.5361,-79.4221 238.1526,-86.3949"/>
<text text-anchor="middle" x="207.996" y="-98.0149" font-family="Times,serif" font-size="14.00" fill="#000000">[1/1](1)</text>
</g>
</g>
</svg>
