<?xml version="1.0" encoding="UTF-8" standalone="no"?>
<!DOCTYPE svg PUBLIC "-//W3C//DTD SVG 1.1//EN"
 "http://www.w3.org/Graphics/SVG/1.1/DTD/svg11.dtd">
<!-- Generated by graphviz version 2.40.1 (20161225.0304)
 -->
<!-- Title: finite_state_machine Pages: 1 -->
<svg width="433pt" height="124pt"
 viewBox="0.00 0.00 433.09 124.40" xmlns="http://www.w3.org/2000/svg" xmlns:xlink="http://www.w3.org/1999/xlink">
<g id="graph0" class="graph" transform="scale(1 1) rotate(0) translate(4 120.3956)">
<title>finite_state_machine</title>
<polygon fill="#ffffff" stroke="transparent" points="-4,4 -4,-120.3956 429.0911,-120.3956 429.0911,4 -4,4"/>
<!-- S -->
<g id="node1" class="node">
<title>S</title>
<ellipse fill="#c7cde2" stroke="#bec4da" cx="22" cy="-63.5975" rx="18" ry="18"/>
<ellipse fill="none" stroke="#bec4da" cx="22" cy="-63.5975" rx="22" ry="22"/>
<text text-anchor="middle" x="22" y="-59.8975" font-family="Times,serif" font-size="14.00" fill="#000000">S</text>
</g>
<!-- RF -->
<g id="node5" class="node">
<title>RF</title>
<ellipse fill="#dde0ea" stroke="#737683" cx="144.4481" cy="-93.5975" rx="21.3963" ry="21.3963"/>
<text text-anchor="middle" x="144.4481" y="-89.8975" font-family="Times,serif" font-size="14.00" fill="#000000">RF</text>
</g>
<!-- S&#45;&gt;RF -->
<g id="edge4" class="edge">
<title>S&#45;&gt;RF</title>
<path fill="none" stroke="#000000" d="M43.6094,-68.8918C63.0501,-73.6548 91.8296,-80.7058 113.6725,-86.0574"/>
<polygon fill="#000000" stroke="#000000" points="112.9181,-89.476 123.4638,-88.4563 114.5839,-82.6771 112.9181,-89.476"/>
<text text-anchor="middle" x="83.5" y="-87.3975" font-family="Times,serif" font-size="14.00" fill="#000000">[1/1](0)</text>
</g>
<!-- JG -->
<g id="node6" class="node">
<title>JG</title>
<ellipse fill="#dde0ea" stroke="#737683" cx="144.4481" cy="-33.5975" rx="20.5982" ry="20.5982"/>
<text text-anchor="middle" x="144.4481" y="-29.8975" font-family="Times,serif" font-size="14.00" fill="#000000">JG</text>
</g>
<!-- S&#45;&gt;JG -->
<g id="edge5" class="edge">
<title>S&#45;&gt;JG</title>
<path fill="none" stroke="#000000" d="M43.6094,-58.3031C63.1686,-53.5111 92.1809,-46.403 114.0713,-41.0398"/>
<polygon fill="#000000" stroke="#000000" points="114.9901,-44.4183 123.87,-38.6391 113.3243,-37.6194 114.9901,-44.4183"/>
<text text-anchor="middle" x="83.5" y="-56.3975" font-family="Times,serif" font-size="14.00" fill="#000000">[1/1](0)</text>
</g>
<!-- P -->
<g id="node2" class="node">
<title>P</title>
<ellipse fill="#c7cde2" stroke="#bec4da" cx="403.0911" cy="-61.5975" rx="18" ry="18"/>
<ellipse fill="none" stroke="#bec4da" cx="403.0911" cy="-61.5975" rx="22" ry="22"/>
<text text-anchor="middle" x="403.0911" y="-57.8975" font-family="Times,serif" font-size="14.00" fill="#000000">P</text>
</g>
<!-- Inj -->
<g id="node3" class="node">
<title>Inj</title>
<ellipse fill="#dde0ea" stroke="#737683" cx="273.4937" cy="-95.5975" rx="20.5982" ry="20.5982"/>
<text text-anchor="middle" x="273.4937" y="-91.8975" font-family="Times,serif" font-size="14.00" fill="#000000">Inj</text>
</g>
<!-- Inj&#45;&gt;P -->
<g id="edge1" class="edge">
<title>Inj&#45;&gt;P</title>
<path fill="none" stroke="#000000" d="M293.7433,-90.285C314.6731,-84.794 347.6213,-76.15 371.8844,-69.7846"/>
<polygon fill="#000000" stroke="#000000" points="372.9063,-73.135 381.6907,-67.2119 371.1299,-66.3641 372.9063,-73.135"/>
<text text-anchor="middle" x="341.5911" y="-86.3975" font-family="Times,serif" font-size="14.00" fill="#000000">[1/1](0)</text>
</g>
<!-- Auto -->
<g id="node4" class="node">
<title>Auto</title>
<ellipse fill="#dde0ea" stroke="#737683" cx="273.4937" cy="-28.5975" rx="28.6953" ry="28.6953"/>
<text text-anchor="middle" x="273.4937" y="-24.8975" font-family="Times,serif" font-size="14.00" fill="#000000">Auto</text>
</g>
<!-- Auto&#45;&gt;P -->
<g id="edge2" class="edge">
<title>Auto&#45;&gt;P</title>
<path fill="none" stroke="#000000" d="M301.391,-35.2379C319.0967,-39.5042 342.4749,-45.2327 363.0911,-50.5975 365.901,-51.3286 368.8177,-52.1023 371.7381,-52.8869"/>
<polygon fill="#000000" stroke="#000000" points="370.9626,-56.3031 381.5307,-55.5511 372.8003,-49.5486 370.9626,-56.3031"/>
<text text-anchor="middle" x="341.5911" y="-54.3975" font-family="Times,serif" font-size="14.00" fill="#000000">[1/1](0)</text>
</g>
<!-- RF&#45;&gt;Inj -->
<g id="edge3" class="edge">
<title>RF&#45;&gt;Inj</title>
<path fill="none" stroke="#000000" d="M166.0474,-93.9322C186.9536,-94.2562 218.8629,-94.7508 242.4809,-95.1168"/>
<polygon fill="#000000" stroke="#000000" points="242.6266,-98.6194 252.6796,-95.2749 242.7351,-91.6202 242.6266,-98.6194"/>
<text text-anchor="middle" x="205.3962" y="-98.3975" font-family="Times,serif" font-size="14.00" fill="#000000">[1/1](1)</text>
</g>
<!-- JG&#45;&gt;Auto -->
<g id="edge6" class="edge">
<title>JG&#45;&gt;Auto</title>
<path fill="none" stroke="#000000" d="M165.4687,-32.783C184.1727,-32.0583 212.0057,-30.9799 234.735,-30.0992"/>
<polygon fill="#000000" stroke="#000000" points="234.9109,-33.5951 244.7679,-29.7105 234.6398,-26.6004 234.9109,-33.5951"/>
<text text-anchor="middle" x="205.3962" y="-36.3975" font-family="Times,serif" font-size="14.00" fill="#000000">[1/1](1)</text>
</g>
</g>
</svg>
